<svg class="img-fluid" id="outputsvg" xmlns="http://www.w3.org/2000/svg" width="1068" height="1068" viewBox="0 0 10680 10680"><g id="l7OHKy2ltJ93G3W5W5E6NF1" fill="rgb(66,43,13)" style="transform: none;"><g style="transform: none;"><path id="p1A2XkRLDm" d="M10033 10485 c-19 -21 -16 -25 17 -25 23 0 30 4 30 20 0 23 -29 26 -47 5z"></path><path id="pCMDdjXv9" d="M10340 10454 c0 -14 6 -32 14 -40 8 -8 26 -14 40 -14 22 0 26 -4 26 -30 0 -27 3 -30 30 -30 17 0 30 2 30 5 0 2 -29 34 -65 70 -36 36 -68 65 -70 65 -3 0 -5 -12 -5 -26z"></path><path id="peyle7pFL" d="M9933 10445 c-19 -21 -16 -25 17 -25 23 0 30 4 30 20 0 23 -29 26 -47 5z"></path><path id="pIUYNgBje" d="M9780 10390 c0 -5 -12 -10 -26 -10 -23 0 -54 -20 -54 -34 0 -3 14 -6 30 -6 17 0 30 5 30 10 0 6 14 10 30 10 23 0 30 4 30 20 0 13 -7 20 -20 20 -11 0 -20 -4 -20 -10z"></path><path id="p1CntkyS1F" d="M9553 10305 c-19 -21 -16 -25 17 -25 23 0 30 4 30 20 0 23 -29 26 -47 5z"></path><path id="pLoGiy0iv" d="M9233 10185 c-19 -21 -16 -25 17 -25 23 0 30 4 30 20 0 23 -29 26 -47 5z"></path><path id="p128FZ08rf" d="M10200 9330 c0 -34 5 -37 26 -16 21 21 17 46 -6 46 -16 0 -20 -7 -20 -30z"></path><path id="p11haiXrIj" d="M10080 9010 c0 -34 5 -37 26 -16 21 21 17 46 -6 46 -16 0 -20 -7 -20 -30z"></path><path id="p105xGN5CZ" d="M4250 6485 c0 -16 6 -25 15 -25 18 0 20 -16 3 -23 -7 -3 4 -6 25 -6 37 -1 37 -1 37 39 l0 40 -40 0 c-36 0 -40 -2 -40 -25z"></path><path id="p8uXGJAM4" d="M4228 5529 c-27 -15 -32 -71 -14 -173 17 -104 34 -158 76 -249 60 -129 183 -273 305 -357 62 -43 216 -115 290 -135 81 -23 354 -32 448 -15 89 16 107 33 107 103 0 72 -17 86 -123 103 -361 58 -706 297 -882 610 -70 127 -68 124 -133 124 -31 0 -65 -5 -74 -11z"></path><path id="pJJhfKSq4" d="M3707 5016 c-73 -21 -152 -79 -202 -147 -55 -75 -69 -120 -69 -229 1 -134 41 -208 144 -262 38 -20 60 -23 145 -23 88 0 107 3 158 27 73 35 155 116 193 193 26 54 29 70 29 155 0 81 -4 103 -26 151 -44 93 -123 139 -249 145 -45 2 -94 -2 -123 -10z m-68 -302 c21 -26 21 -28 3 -58 -20 -34 -45 -44 -67 -26 -22 18 -18 60 7 87 27 29 32 29 57 -3z"></path><path id="pBJnGbTHN" d="M4804 4391 c-97 -25 -206 -120 -252 -221 -21 -46 -26 -70 -26 -150 -1 -84 2 -101 27 -152 15 -31 43 -68 62 -83 64 -48 99 -57 214 -53 126 4 174 23 255 104 87 87 123 189 110 314 -11 108 -48 168 -132 217 -40 23 -59 28 -137 30 -49 1 -104 -1 -121 -6z m-34 -321 c0 -6 -12 -24 -27 -40 l-28 -31 -22 21 c-30 27 -29 55 3 87 l27 27 23 -28 c13 -15 24 -31 24 -36z"></path><path id="pAbxFckOG" d="M3095 4325 c-37 -36 -35 -118 3 -171 44 -60 132 -136 200 -172 118 -63 163 -74 327 -79 143 -5 151 -4 178 17 24 19 27 28 27 80 0 32 -3 66 -6 75 -9 21 -56 45 -92 45 -103 0 -320 91 -429 179 -59 49 -64 51 -123 51 -51 0 -65 -4 -85 -25z"></path><path id="pXoFfFeQ2" d="M4171 3834 c-56 -71 -3 -212 129 -344 121 -121 275 -189 427 -190 76 0 90 5 108 41 19 35 19 80 1 123 -12 28 -25 38 -73 56 -151 56 -283 150 -373 264 -28 35 -57 67 -66 70 -9 3 -42 6 -74 6 -51 0 -61 -3 -79 -26z"></path><path id="pA0AGEDfk" d="M903 3074 c-68 -68 -123 -126 -123 -129 0 -3 11 -5 25 -5 18 0 49 23 110 85 47 47 85 92 85 100 0 8 9 15 20 15 16 0 20 7 20 30 0 17 -3 30 -7 29 -5 -1 -63 -57 -130 -125z"></path><path id="p1DDeY4TYb" d="M563 2735 c-30 -31 -29 -35 7 -35 27 0 30 3 30 30 0 36 -8 37 -37 5z"></path><path id="pGoKj9RyT" d="M920 1195 c0 -8 47 -55 55 -55 3 0 5 14 5 30 0 27 -3 30 -30 30 -16 0 -30 -2 -30 -5z"></path></g></g><g id="l3qH7Qs8vGCoh8c2ysaOXbh" fill="rgb(137,96,35)" style="transform: none;"><g style="transform: none;"><path id="p12j8IaMJl" d="M10100 10500 c0 -16 7 -20 35 -20 28 0 35 4 35 20 0 16 -7 20 -35 20 -28 0 -35 -4 -35 -20z"></path><path id="p1AhzYOEX" d="M10400 10390 c0 -27 3 -30 30 -30 27 0 29 2 19 19 -7 10 -20 23 -30 30 -17 10 -19 8 -19 -19z"></path><path id="p10tZdqmO2" d="M9722 10368 c-20 -20 -14 -28 23 -28 28 0 35 4 35 20 0 23 -38 28 -58 8z"></path><path id="p12QeLaymR" d="M9613 10325 c-19 -21 -16 -25 17 -25 23 0 30 4 30 20 0 23 -29 26 -47 5z"></path><path id="pmlWb7W3f" d="M9500 10290 c0 -5 -13 -10 -29 -10 -17 0 -31 -6 -35 -16 -9 -24 -9 -24 29 -24 19 0 35 5 35 10 0 6 14 10 30 10 23 0 30 4 30 20 0 16 -7 20 -30 20 -16 0 -30 -4 -30 -10z"></path><path id="pa1Oht2Li" d="M9276 10204 c-9 -24 -9 -24 29 -24 28 0 35 4 35 20 0 15 -7 20 -29 20 -17 0 -31 -6 -35 -16z"></path><path id="p1FEJ63sWz" d="M4248 5543 c-10 -2 -18 -13 -18 -24 0 -11 -7 -19 -16 -19 -15 0 -16 -10 -11 -80 9 -119 64 -310 88 -310 5 0 9 -9 9 -20 0 -11 5 -20 10 -20 6 0 10 -9 10 -20 0 -11 5 -20 10 -20 6 0 10 -7 10 -15 0 -8 5 -15 10 -15 6 0 10 -7 10 -15 0 -8 7 -15 15 -15 8 0 15 -9 15 -20 0 -13 7 -20 19 -20 14 0 21 -8 23 -27 3 -25 8 -28 43 -31 l39 -3 -45 48 c-116 124 -193 281 -223 455 -19 109 -7 138 59 138 27 0 39 -14 100 -124 101 -179 252 -333 441 -447 36 -22 76 -44 90 -49 21 -9 24 -7 24 15 0 18 -7 26 -25 31 -14 3 -25 10 -25 14 0 4 -14 13 -31 21 -18 7 -43 23 -57 36 -14 13 -31 23 -37 23 -7 0 -15 7 -19 15 -3 8 -11 15 -18 15 -7 0 -19 9 -26 20 -8 13 -23 20 -42 20 -25 0 -30 4 -30 23 0 29 -39 67 -68 67 -18 0 -22 6 -22 30 0 18 -6 33 -15 36 -8 4 -15 11 -15 18 0 6 -13 26 -29 44 -16 17 -32 41 -36 52 -3 11 -11 20 -16 20 -5 0 -9 7 -9 15 0 8 -4 15 -10 15 -5 0 -10 9 -10 20 0 11 -4 20 -10 20 -5 0 -10 9 -10 20 0 11 -4 20 -10 20 -5 0 -10 7 -10 15 0 8 -9 15 -20 15 -11 0 -20 5 -20 10 0 10 -59 12 -92 3z"></path><path id="p1wBVS2c0" d="M3718 5024 c-10 -3 -18 -10 -18 -15 0 -5 -13 -9 -30 -9 -16 0 -30 -4 -30 -10 0 -5 -7 -10 -15 -10 -8 0 -15 -4 -15 -10 0 -5 -7 -10 -15 -10 -10 0 -15 -10 -15 -30 l0 -30 59 38 c112 73 228 76 328 9 86 -58 127 -171 101 -278 -15 -59 -14 -59 8 -59 19 0 24 7 30 46 10 68 -1 184 -21 227 -15 30 -24 37 -47 37 -24 0 -28 4 -28 30 0 25 -7 33 -42 52 -34 17 -63 22 -138 24 -52 2 -103 0 -112 -2z"></path><path id="p1DCi6c0x2" d="M3503 4870 c-3 -11 -9 -20 -14 -20 -5 0 -9 -16 -9 -35 0 -19 3 -35 8 -35 4 1 24 25 45 55 l38 55 -32 0 c-22 0 -32 -5 -36 -20z"></path><path id="pZoPlXaMq" d="M4980 4880 c0 -24 214 -94 321 -106 69 -8 109 -34 109 -70 0 -37 -31 -60 -98 -73 -42 -8 -62 -17 -62 -27 0 -17 27 -18 103 -3 36 8 57 17 57 25 0 8 7 14 16 14 14 0 15 9 9 68 -4 40 -12 72 -21 78 -8 7 -50 17 -93 23 -43 7 -114 23 -157 36 -43 14 -87 25 -96 25 -10 0 -18 5 -18 10 0 6 -16 10 -35 10 -19 0 -35 -5 -35 -10z"></path><path id="p16yeKPpsS" d="M4532 4819 c2 -26 8 -35 26 -37 12 -2 22 -10 22 -18 0 -8 7 -14 15 -14 8 0 15 -4 15 -10 0 -5 7 -10 15 -10 8 0 15 -4 15 -9 0 -15 176 -90 262 -112 49 -12 133 -23 206 -26 117 -5 122 -5 122 14 0 19 -8 21 -127 26 -71 3 -155 13 -188 22 -114 31 -261 109 -373 198 -11 9 -13 4 -10 -24z"></path><path id="paXleS563" d="M3585 4770 c-40 -16 -59 -48 -59 -102 0 -41 5 -54 23 -69 60 -49 141 4 141 90 0 53 -60 100 -105 81z"></path><path id="p16y8GZp2l" d="M3434 4714 c-10 -67 1 -173 22 -216 14 -30 23 -38 44 -38 l27 0 -29 58 c-30 61 -37 118 -25 195 8 43 7 47 -12 47 -16 0 -21 -9 -27 -46z"></path><path id="pZPZpNWZm" d="M4012 4550 l-32 -50 30 0 c20 0 30 5 30 15 0 8 5 15 10 15 6 0 10 16 10 35 0 19 -3 35 -7 35 -5 0 -23 -23 -41 -50z"></path><path id="p121ty4IDj" d="M3930 4459 c-41 -32 -96 -58 -150 -70 -34 -7 -50 -16 -50 -26 0 -13 9 -15 55 -9 68 8 135 34 135 52 0 8 9 14 20 14 16 0 20 7 20 30 0 35 2 35 -30 9z"></path><path id="p1CT2bHFQl" d="M3540 4420 c0 -24 5 -31 28 -36 15 -4 30 -11 33 -16 3 -5 31 -12 62 -15 47 -5 57 -3 57 10 0 10 -16 19 -50 26 -28 6 -68 22 -90 36 l-40 25 0 -30z"></path><path id="pEX1dPCC7" d="M4800 4394 c-43 -14 -90 -38 -90 -46 0 -4 -7 -8 -15 -8 -9 0 -15 -9 -15 -25 0 -21 -5 -25 -30 -25 -23 0 -30 -4 -30 -20 0 -11 -7 -20 -15 -20 -9 0 -19 -8 -22 -17 -4 -10 -10 -20 -14 -23 -40 -29 -62 -224 -34 -309 9 -28 21 -51 26 -51 5 0 9 -7 9 -15 0 -8 9 -15 20 -15 14 0 20 -7 20 -21 0 -12 8 -23 20 -26 11 -3 20 -9 20 -14 0 -14 100 -39 156 -39 64 0 154 18 154 31 0 5 9 9 19 9 11 0 26 6 33 13 8 6 23 17 33 23 11 6 21 20 23 32 2 12 12 22 24 24 12 2 26 12 32 23 6 10 17 25 24 33 6 7 12 22 12 33 0 10 4 19 10 19 15 0 30 70 30 145 0 75 -15 145 -30 145 -6 0 -10 9 -10 20 0 16 -7 20 -31 20 l-30 0 19 -27 c44 -66 58 -169 32 -249 -29 -87 -111 -181 -197 -224 -62 -31 -181 -40 -236 -16 -141 59 -201 220 -135 366 48 107 168 206 271 224 23 4 37 12 37 21 0 15 -55 20 -90 9z"></path><path id="pQNx31M4V" d="M4930 4386 c0 -13 28 -26 58 -26 6 0 12 9 12 20 0 16 -7 20 -35 20 -23 0 -35 -5 -35 -14z"></path><path id="pEVGUAcJr" d="M3114 4346 c-18 -8 -36 -27 -43 -45 -17 -40 -6 -116 20 -142 10 -10 19 -23 19 -27 0 -13 84 -92 98 -92 7 0 12 -5 12 -10 0 -6 12 -16 28 -23 15 -6 29 -14 32 -18 10 -13 70 -39 90 -39 11 0 20 -4 20 -9 0 -17 128 -44 235 -48 136 -6 188 8 193 50 2 15 8 27 13 27 10 0 12 34 3 79 -4 17 -13 31 -20 31 -8 0 -14 6 -14 14 0 17 -13 22 -105 36 -73 11 -227 59 -233 72 -2 5 -12 8 -23 8 -10 0 -19 4 -19 10 0 5 -11 12 -25 16 -14 3 -25 10 -25 15 0 5 -6 9 -14 9 -8 0 -16 7 -20 15 -3 8 -13 15 -23 15 -10 0 -23 10 -28 23 -7 15 -20 23 -42 25 -18 2 -33 7 -33 13 0 13 -60 10 -96 -5z m159 -77 c109 -88 326 -179 429 -179 88 0 134 -90 71 -140 -26 -21 -36 -22 -148 -17 -131 5 -188 21 -297 79 -105 56 -228 182 -228 235 0 34 42 73 80 73 23 0 48 -14 93 -51z"></path><path id="pkrbfuSEv" d="M5020 4353 c0 -5 16 -18 35 -31 l35 -22 0 30 c0 28 -3 30 -35 30 -19 0 -35 -3 -35 -7z"></path><path id="p1AQkDtjpo" d="M4683 4150 c-54 -33 -64 -130 -16 -166 80 -61 180 74 111 150 -32 34 -58 39 -95 16z"></path><path id="p8Di96fC2" d="M4210 3860 c0 -5 -9 -10 -20 -10 -27 0 -40 -30 -40 -94 0 -54 33 -146 52 -146 4 0 8 -7 8 -15 0 -8 5 -15 10 -15 6 0 10 -6 10 -14 0 -21 26 -38 54 -34 l26 3 -36 45 c-42 53 -94 151 -94 178 0 37 38 72 77 72 30 0 42 -7 72 -42 74 -86 161 -169 222 -208 34 -22 66 -40 71 -40 4 0 8 11 8 25 0 18 -7 26 -25 31 -14 3 -25 10 -25 15 0 5 -6 9 -14 9 -8 0 -16 7 -20 15 -3 8 -15 15 -26 15 -11 0 -20 6 -20 13 0 7 -24 36 -54 64 -29 28 -56 58 -59 67 -4 9 -11 16 -17 16 -5 0 -10 7 -10 16 0 8 -16 22 -35 30 -39 16 -115 19 -115 4z"></path><path id="pGPl0CVU2" d="M4642 3538 c3 -7 38 -27 78 -43 61 -25 76 -35 87 -63 11 -28 11 -37 -2 -62 -9 -17 -27 -33 -42 -37 -76 -18 -274 51 -373 131 -42 33 -45 34 -48 15 -5 -31 5 -49 28 -49 11 0 20 -7 20 -15 0 -9 9 -15 25 -15 14 0 25 -6 25 -13 0 -28 154 -83 262 -93 110 -11 148 17 148 111 0 53 -8 75 -26 75 -8 0 -14 6 -14 14 0 7 -26 23 -59 35 -66 24 -115 28 -109 9z"></path><path id="pgCbweMbp" d="M860 1255 c0 -8 47 -55 55 -55 3 0 5 14 5 30 0 27 -3 30 -30 30 -16 0 -30 -2 -30 -5z"></path></g></g><g id="l5uI8NWzzhIXfVzU9vLym5q" fill="rgb(97,97,97)" style="transform: none;"><g style="transform: none;"><path id="poWkYwfCZ" d="M10100 10509 c0 -5 -11 -9 -24 -9 -14 0 -28 -4 -31 -10 -3 -5 -19 -10 -36 -10 -16 0 -29 -3 -29 -7 0 -12 -51 -33 -77 -33 -13 0 -23 -4 -23 -10 0 -5 -13 -10 -30 -10 -16 0 -30 -3 -30 -8 0 -8 -51 -32 -75 -36 -8 -1 -18 -5 -21 -9 -4 -4 -20 -7 -36 -7 -15 0 -28 -3 -28 -7 0 -9 -48 -33 -66 -33 -6 0 -24 -7 -40 -14 -15 -8 -32 -12 -37 -9 -5 3 -13 0 -17 -6 -4 -7 -18 -13 -31 -14 -13 0 -28 -6 -32 -12 -6 -7 -10 -6 -14 3 -8 19 -23 14 -23 -8 0 -15 -7 -20 -29 -20 -16 0 -31 -5 -33 -10 -2 -6 -14 -12 -28 -12 -14 -1 -27 -5 -30 -8 -13 -14 -52 -30 -75 -30 -14 0 -25 -4 -25 -10 0 -5 -13 -10 -29 -10 -16 0 -32 -6 -35 -12 -5 -10 -7 -10 -12 0 -9 19 -24 14 -24 -8 0 -16 -7 -20 -30 -20 -16 0 -30 -4 -30 -10 0 -5 -13 -10 -29 -10 -16 0 -32 -6 -34 -12 -4 -10 -8 -10 -15 1 -9 12 -13 12 -26 -2 -21 -20 -21 -53 0 -61 9 -3 28 -6 43 -6 35 0 243 -53 309 -79 413 -163 665 -491 742 -968 12 -71 13 -73 41 -73 26 0 29 4 29 30 0 17 5 30 10 30 6 0 10 9 10 19 0 11 5 23 10 26 6 3 10 17 10 31 0 13 5 24 10 24 6 0 10 14 10 30 0 17 5 30 10 30 6 0 10 9 10 20 0 11 5 20 10 20 6 0 10 14 10 30 0 17 5 30 10 30 6 0 10 14 10 30 0 17 5 30 10 30 6 0 10 9 10 19 0 11 5 23 10 26 6 3 10 17 10 31 0 13 5 24 10 24 6 0 10 14 10 30 0 17 5 30 10 30 6 0 10 9 10 20 0 11 5 20 10 20 6 0 10 14 10 30 0 17 5 30 10 30 6 0 10 14 10 30 0 17 5 30 10 30 6 0 10 9 10 20 0 11 5 20 10 20 6 0 10 14 10 30 0 17 5 30 10 30 6 0 10 9 10 20 0 11 5 20 10 20 6 0 10 14 10 30 0 17 5 30 10 30 6 0 10 14 10 30 0 17 5 30 10 30 6 0 10 9 10 20 0 11 5 20 10 20 6 0 10 14 10 30 0 17 5 30 10 30 6 0 10 14 10 30 0 17 5 30 10 30 6 0 10 14 10 30 0 17 5 30 10 30 6 0 10 37 10 90 0 53 -4 90 -10 90 -5 0 -10 14 -10 30 0 17 -4 30 -10 30 -5 0 -10 6 -10 13 0 8 -30 44 -67 80 -36 37 -72 67 -80 67 -7 0 -13 5 -13 10 0 6 -18 10 -40 10 -22 0 -40 5 -40 10 0 6 -28 10 -70 9 -38 -1 -70 -5 -70 -10z"></path><path id="p18II7Tt4Z" d="M4513 7265 c-19 -21 -16 -25 17 -25 23 0 30 4 30 20 0 23 -29 26 -47 5z"></path><path id="plDeyBGGW" d="M4393 7145 c-20 -22 -16 -45 7 -45 16 0 20 7 20 30 0 33 -8 37 -27 15z"></path><path id="p1BQGfFnSC" d="M4153 6885 c-19 -21 -16 -25 17 -25 23 0 30 4 30 20 0 23 -29 26 -47 5z"></path><path id="pSNx9bzSk" d="M4020 6454 c0 -3 6 -12 14 -20 21 -21 46 -17 46 6 0 16 -7 20 -30 20 -16 0 -30 -3 -30 -6z"></path><path id="p4wiQ7w7P" d="M4120 6440 c0 -23 25 -27 46 -6 21 21 18 26 -16 26 -23 0 -30 -4 -30 -20z"></path><path id="p29nhpOKc" d="M513 2665 c-20 -22 -16 -45 7 -45 16 0 20 7 20 30 0 33 -8 37 -27 15z"></path><path id="pZTgK4D7A" d="M1140 975 c0 -8 47 -55 55 -55 3 0 5 14 5 30 0 27 -3 30 -30 30 -16 0 -30 -2 -30 -5z"></path></g></g><g id="lTiAH72fta5cptPeK1Whpt" fill="rgb(183,104,44)" style="transform: none;"><g style="transform: none;"><path id="phF1CluUC" d="M10100 10510 c0 -5 9 -10 21 -10 11 0 17 5 14 10 -3 6 -13 10 -21 10 -8 0 -14 -4 -14 -10z"></path><path id="pK8ajZ1lq" d="M8373 9865 c-19 -21 -16 -25 17 -25 23 0 30 4 30 20 0 23 -29 26 -47 5z"></path><path id="pdpuuo3ud" d="M8213 9805 c-19 -21 -16 -25 17 -25 23 0 30 4 30 20 0 23 -29 26 -47 5z"></path><path id="pzKDcgFD7" d="M8053 9745 c-19 -21 -16 -25 17 -25 23 0 30 4 30 20 0 23 -29 26 -47 5z"></path><path id="pBXcg3I3w" d="M7673 9605 c-19 -21 -16 -25 17 -25 23 0 30 4 30 20 0 23 -29 26 -47 5z"></path><path id="pfzbCO0Mh" d="M7413 9505 c-19 -21 -16 -25 17 -25 23 0 30 4 30 20 0 23 -29 26 -47 5z"></path><path id="pKn8ossau" d="M7333 9465 c-19 -21 -16 -25 17 -25 23 0 30 4 30 20 0 23 -29 26 -47 5z"></path><path id="pb74kciG7" d="M3810 6599 c-11 -8 -12 -12 -2 -16 6 -2 12 -13 12 -24 0 -12 7 -19 20 -19 16 0 20 7 20 35 0 37 -19 46 -50 24z"></path><path id="pxaI4Jcoo" d="M5120 5915 c0 -33 2 -35 35 -35 33 0 35 2 35 35 0 33 -2 35 -35 35 -33 0 -35 -2 -35 -35z"></path><path id="p19bj6tObc" d="M4338 5500 c11 -11 29 -37 39 -57 22 -49 80 -140 93 -148 6 -4 10 8 10 29 0 25 -4 36 -15 36 -9 0 -15 9 -15 25 0 14 -4 25 -10 25 -5 0 -10 7 -10 15 0 8 -4 15 -10 15 -5 0 -10 9 -10 20 0 11 -4 20 -10 20 -5 0 -10 9 -10 20 0 16 -7 20 -37 20 l-37 0 22 -20z"></path><path id="p9wuPHcfc" d="M4200 5445 c0 -59 2 -65 21 -65 19 0 20 4 14 40 -5 30 -2 47 9 65 16 25 16 25 -14 25 l-30 0 0 -65z"></path><path id="pBLYVcV5T" d="M4220 5305 c0 -28 4 -35 20 -35 21 0 24 10 14 48 -10 36 -34 27 -34 -13z"></path><path id="pX0TABy83" d="M4240 5230 c0 -16 14 -61 31 -100 26 -58 36 -70 55 -70 13 0 24 2 24 4 0 2 -18 42 -40 89 -22 47 -40 90 -40 96 0 6 -7 11 -15 11 -10 0 -15 -10 -15 -30z"></path><path id="pDU4jPwIt" d="M3678 5013 c-10 -2 -18 -9 -18 -14 0 -5 -9 -9 -20 -9 -16 0 -20 -7 -20 -31 l0 -30 28 19 c15 11 46 25 70 32 51 16 57 41 10 39 -18 -1 -41 -3 -50 -6z"></path><path id="pxIscSb4y" d="M4002 4922 c25 -27 51 -65 59 -85 16 -45 39 -49 39 -7 0 37 -19 80 -37 80 -7 0 -13 8 -13 18 0 27 -20 42 -58 42 l-35 0 45 -48z"></path><path id="piwI44XYD" d="M3440 4735 c0 -22 5 -35 13 -35 8 0 18 16 24 35 11 33 10 35 -13 35 -21 0 -24 -5 -24 -35z"></path><path id="pvBALtqcH" d="M3490 4468 c0 -38 15 -58 42 -58 10 0 18 -6 18 -13 0 -18 43 -37 80 -37 42 0 38 23 -7 39 -20 8 -58 34 -85 59 l-48 45 0 -35z"></path><path id="p1Bh4eTkzZ" d="M3150 4342 c0 -14 8 -19 35 -20 29 -1 35 2 35 18 0 16 -7 20 -35 20 -27 0 -35 -4 -35 -18z"></path><path id="pAi50xoDc" d="M5085 4299 l40 -40 3 26 c6 43 -4 55 -45 55 l-37 0 39 -41z"></path><path id="pvKZ23N6H" d="M3260 4285 c15 -18 137 -99 163 -108 13 -5 17 -1 17 18 0 16 -6 25 -15 25 -8 0 -15 4 -15 10 0 5 -11 12 -25 16 -14 3 -25 10 -25 15 0 5 -9 9 -20 9 -11 0 -20 7 -20 15 0 11 -11 15 -36 15 -31 0 -35 -2 -24 -15z"></path><path id="pIEWFAiDi" d="M3077 4122 c-68 -69 -65 -93 18 -154 83 -62 110 -63 170 -7 25 23 45 45 45 49 0 3 -22 21 -48 38 -27 17 -68 52 -91 77 -23 25 -43 45 -44 45 -2 0 -24 -22 -50 -48z"></path><path id="pp7TGTJts" d="M4630 3790 c0 -28 3 -30 35 -30 44 0 44 9 0 38 l-35 22 0 -30z"></path><path id="p9Hd5PCtH" d="M4465 3650 c3 -5 19 -19 35 -30 l30 -21 0 30 c0 29 -3 31 -36 31 -20 0 -33 -4 -29 -10z"></path><path id="pmh2SAN0e" d="M4280 3525 c0 -34 1 -35 37 -35 l37 0 -34 35 c-19 19 -35 35 -37 35 -2 0 -3 -16 -3 -35z"></path><path id="ponoh9IST" d="M4360 3451 c0 -29 3 -31 36 -31 39 0 38 9 -6 40 l-30 21 0 -30z"></path><path id="pIQBDoxFS" d="M758 2927 c-32 -30 -58 -58 -58 -61 0 -3 11 -6 25 -6 37 0 97 63 93 97 -3 25 -5 24 -60 -30z"></path><path id="pb4O5OIPB" d="M1180 935 c0 -8 47 -55 55 -55 3 0 5 14 5 30 0 27 -3 30 -30 30 -16 0 -30 -2 -30 -5z"></path></g></g><g id="l5h09RRMtsLciy7gZshGLUH" fill="rgb(220,138,7)" style="transform: none;"><g style="transform: none;"><path id="phXjhRW03" d="M7974 8949 c8 -64 19 -84 51 -90 15 -3 6 -16 -43 -67 -34 -34 -62 -69 -62 -77 0 -8 -7 -15 -15 -15 -20 0 -225 -205 -225 -225 0 -8 -7 -15 -15 -15 -20 0 -225 -205 -225 -225 0 -8 -7 -15 -15 -15 -20 0 -225 -205 -225 -225 0 -8 -7 -15 -15 -15 -20 0 -225 -205 -225 -225 0 -8 -7 -15 -15 -15 -20 0 -225 -205 -225 -225 0 -8 -7 -15 -15 -15 -20 0 -225 -205 -225 -225 0 -8 -7 -15 -15 -15 -20 0 -225 -205 -225 -225 0 -8 -7 -15 -15 -15 -20 0 -225 -205 -225 -225 0 -8 -7 -15 -15 -15 -9 0 -58 -43 -110 -95 -70 -69 -95 -101 -95 -120 0 -20 -5 -25 -25 -25 -37 0 -215 -178 -215 -215 0 -20 -5 -25 -25 -25 -19 0 -52 -27 -130 -105 -58 -57 -105 -111 -105 -120 0 -8 -7 -15 -15 -15 -8 0 -39 -24 -70 -53 -44 -43 -55 -60 -55 -85 0 -29 3 -32 32 -32 25 0 42 11 85 55 29 31 53 62 53 70 0 8 7 15 15 15 9 0 63 47 120 105 78 78 105 111 105 130 0 20 5 25 25 25 37 0 215 178 215 215 0 20 5 25 25 25 19 0 51 25 120 95 52 52 95 101 95 110 0 8 7 15 15 15 20 0 225 205 225 225 0 8 7 15 15 15 20 0 225 205 225 225 0 8 7 15 15 15 20 0 225 205 225 225 0 8 7 15 15 15 20 0 225 205 225 225 0 8 7 15 15 15 20 0 225 205 225 225 0 8 7 15 15 15 20 0 225 205 225 225 0 8 7 15 15 15 20 0 225 205 225 225 0 8 7 15 15 15 20 0 225 205 225 225 0 8 7 15 15 15 9 0 58 43 110 94 79 79 95 100 95 125 0 29 -3 31 -35 31 -19 0 -35 -4 -35 -10 0 -5 -4 -10 -10 -10 -5 0 -10 7 -10 15 0 8 -6 15 -14 15 -16 0 -26 21 -26 56 0 21 -5 24 -36 24 l-37 0 7 -61z"></path><path id="p1yCKQUq1" d="M4833 5645 c-18 -19 -33 -41 -33 -50 0 -8 -7 -15 -15 -15 -9 0 -81 -66 -162 -146 -163 -163 -157 -148 -88 -229 l34 -40 1 38 c0 20 -4 37 -10 37 -5 0 54 63 130 140 77 76 140 146 140 155 0 8 7 15 15 15 28 0 85 67 85 100 0 27 -3 30 -32 29 -24 0 -42 -10 -65 -34z"></path><path id="p1HSN16uaJ" d="M4250 5540 c0 -5 -9 -10 -20 -10 -16 0 -20 -7 -20 -35 0 -42 4 -43 33 -9 23 26 57 34 90 20 14 -7 17 -3 17 18 0 25 -3 26 -50 26 -27 0 -50 -4 -50 -10z"></path><path id="p8LwwFQgE" d="M4200 5413 c0 -14 5 -55 11 -90 10 -55 14 -63 33 -63 22 0 23 1 10 53 -7 28 -15 69 -19 90 -7 44 -35 52 -35 10z"></path><path id="p8XxItUiW" d="M4182 4994 l-123 -125 11 -55 c7 -35 16 -54 26 -54 8 0 14 9 14 20 0 13 47 67 126 145 l126 125 -21 32 c-11 18 -24 34 -28 35 -4 1 -63 -54 -131 -123z"></path><path id="pCtADRS5T" d="M4635 5100 c3 -5 19 -19 35 -30 l30 -21 0 30 c0 29 -3 31 -36 31 -20 0 -33 -4 -29 -10z"></path><path id="p1FvnzNFym" d="M3840 5017 c0 -9 13 -18 33 -22 17 -4 51 -17 75 -30 l42 -24 0 28 c0 33 -29 49 -102 58 -39 5 -48 3 -48 -10z"></path><path id="p1AaGvdxcA" d="M3680 4996 c0 -23 2 -24 35 -13 19 6 35 16 35 24 0 8 -13 13 -35 13 -30 0 -35 -3 -35 -24z"></path><path id="p2GSQX2ds" d="M4380 4976 c0 -33 2 -36 31 -36 l30 0 -21 30 c-31 44 -40 45 -40 6z"></path><path id="pTXa51IL6" d="M4800 4975 c14 -16 156 -97 203 -114 25 -10 27 -9 27 14 0 18 -5 25 -20 25 -11 0 -20 5 -20 10 0 6 -13 10 -30 10 -20 0 -30 5 -30 15 0 10 -11 15 -35 15 -28 0 -35 4 -35 20 0 16 -7 20 -36 20 -32 0 -35 -2 -24 -15z"></path><path id="pjb0pMFAy" d="M3537 4922 c-18 -19 -27 -39 -27 -60 0 -18 2 -32 3 -32 2 0 29 25 60 57 32 31 57 58 57 60 0 1 -15 3 -33 3 -23 0 -41 -8 -60 -28z"></path><path id="ppBKoIION" d="M4460 4882 c0 -32 38 -72 70 -72 13 0 20 -7 20 -20 0 -16 7 -20 37 -20 l38 0 -69 63 c-91 82 -96 85 -96 49z"></path><path id="pORix4VYI" d="M5040 4857 c0 -17 146 -62 254 -78 89 -13 116 -32 116 -79 0 -23 4 -30 20 -30 15 0 20 7 20 28 0 42 -11 72 -26 72 -8 0 -14 6 -14 14 0 10 -34 19 -120 32 -66 10 -120 22 -120 26 0 4 -13 8 -30 8 -16 0 -30 5 -30 10 0 6 -16 10 -35 10 -23 0 -35 -5 -35 -13z"></path><path id="prnGFIX84" d="M3451 4793 c-7 -15 -15 -49 -18 -75 -5 -40 -3 -48 10 -48 10 0 19 11 22 28 4 15 15 46 26 70 24 53 24 52 -4 52 -16 0 -28 -9 -36 -27z"></path><path id="pN6O0FwUO" d="M4072 4668 c-6 -24 -27 -69 -46 -100 l-35 -58 30 0 c19 0 29 5 29 15 0 8 4 15 8 15 12 0 32 47 32 75 0 14 5 25 10 25 6 0 10 16 10 35 0 50 -25 45 -38 -7z"></path><path id="p1H1nMv07b" d="M4780 4665 c0 -22 4 -25 36 -25 44 0 42 18 -4 37 -31 13 -32 12 -32 -12z"></path><path id="p8A4FHb1h" d="M4870 4630 c0 -16 7 -20 35 -20 40 0 49 24 13 34 -38 10 -48 7 -48 -14z"></path><path id="pzBktVsWB" d="M5303 4628 c-46 -10 -61 -38 -20 -38 58 0 97 13 97 31 0 21 -12 22 -77 7z"></path><path id="p12GODiaXE" d="M2385 4555 c-59 -59 -79 -74 -86 -64 -6 10 -9 2 -9 -22 0 -43 6 -48 85 -79 135 -53 348 -169 543 -296 83 -55 121 -74 145 -73 28 0 30 2 15 12 -16 11 -13 16 29 59 l46 47 -26 38 c-27 39 -33 68 -22 113 5 23 -3 30 -97 88 -142 88 -457 242 -505 249 -39 5 -42 3 -118 -72z"></path><path id="pcpyfDBAz" d="M4960 4610 c0 -16 7 -20 35 -20 40 0 49 24 13 34 -38 10 -48 7 -48 -14z"></path><path id="p6RGtnUkq" d="M3433 4572 c9 -73 25 -102 58 -102 l28 0 -24 43 c-13 23 -26 57 -30 75 -4 19 -13 32 -22 32 -13 0 -15 -9 -10 -48z"></path><path id="pq3yoWCJ5" d="M5188 4613 c-33 -8 -20 -33 17 -33 28 0 35 4 35 20 0 20 -14 23 -52 13z"></path><path id="pEtGdLg0K" d="M3910 4440 l-35 -29 38 -1 c35 0 37 2 37 30 0 17 -1 30 -3 30 -1 0 -18 -13 -37 -30z"></path><path id="pIhkwwMiA" d="M3523 4335 c-35 -36 -63 -72 -63 -80 0 -8 -7 -15 -16 -15 -17 0 -44 -23 -44 -38 0 -10 33 -34 63 -45 14 -5 19 0 24 23 3 17 12 30 20 30 8 0 45 32 84 70 39 40 78 70 89 70 11 0 20 6 20 14 0 12 -78 37 -108 36 -4 -1 -35 -30 -69 -65z"></path><path id="p2sWdNfu6" d="M3758 4383 c-33 -8 -20 -33 17 -33 28 0 35 4 35 20 0 20 -14 23 -52 13z"></path><path id="po73lgHzT" d="M4990 4371 c0 -5 24 -23 53 -39 28 -17 61 -44 72 -61 26 -40 35 -39 35 4 0 28 -4 35 -20 35 -13 0 -20 7 -20 20 0 11 -5 20 -11 20 -6 0 -17 7 -25 15 -17 16 -84 21 -84 6z"></path><path id="pmUF4lI1J" d="M3130 4335 c0 -22 2 -24 25 -15 30 11 72 -4 123 -46 l32 -27 0 32 c0 29 -2 31 -35 31 -31 0 -35 3 -35 25 0 24 -3 25 -55 25 -52 0 -55 -1 -55 -25z"></path><path id="p3xSzH2r3" d="M4690 4330 c0 -14 -7 -20 -23 -20 -31 0 -57 -33 -57 -72 l0 -32 48 48 c26 26 59 55 75 64 36 22 34 32 -8 32 -28 0 -35 -4 -35 -20z"></path><path id="pafbCw5GE" d="M4536 4154 c-3 -9 -9 -40 -12 -70 -6 -45 -4 -54 9 -54 11 0 18 13 23 38 4 20 13 52 21 70 13 31 12 32 -11 32 -13 0 -27 -7 -30 -16z"></path><path id="p10PTqM57d" d="M3550 4136 c0 -13 28 -26 58 -26 6 0 12 9 12 20 0 16 -7 20 -35 20 -23 0 -35 -5 -35 -14z"></path><path id="pfuvDG0sb" d="M3670 4116 c0 -13 28 -26 58 -26 6 0 12 9 12 20 0 16 -7 20 -35 20 -23 0 -35 -5 -35 -14z"></path><path id="pVyIieKQu" d="M3800 4028 c4 -43 0 -58 -20 -78 l-20 -20 34 0 c37 0 46 15 46 83 0 31 -3 37 -21 37 -15 0 -20 -6 -19 -22z"></path><path id="pmgRc4rDW" d="M3232 3989 c-23 -22 -47 -37 -52 -34 -6 3 -10 -3 -10 -14 0 -36 54 -28 98 14 41 39 62 44 62 17 0 -13 17 -24 63 -40 34 -12 74 -22 90 -22 42 0 33 25 -15 39 -24 7 -75 28 -115 47 -39 19 -73 34 -75 34 -2 0 -22 -19 -46 -41z"></path><path id="pdkcE0Kv2" d="M4530 3925 c0 -30 3 -35 24 -35 23 0 24 2 13 35 -6 19 -16 35 -24 35 -8 0 -13 -13 -13 -35z"></path><path id="phpab2wVt" d="M3540 3910 c0 -16 7 -20 35 -20 37 0 49 22 19 34 -32 12 -54 6 -54 -14z"></path><path id="p18WuOdr8X" d="M4240 3857 c0 -8 16 -18 35 -24 33 -11 35 -10 35 13 0 21 -5 24 -35 24 -22 0 -35 -5 -35 -13z"></path><path id="p1EKXnAA2h" d="M4220 3595 c0 -32 2 -35 30 -35 l30 0 -22 35 c-29 44 -38 44 -38 0z"></path><path id="pv4nvvapr" d="M4530 3602 c0 -8 52 -42 64 -42 3 0 6 11 6 25 0 22 -4 25 -35 25 -19 0 -35 -4 -35 -8z"></path><path id="pmK2HZaGs" d="M3992 3297 c-59 -60 -72 -78 -72 -105 0 -17 5 -32 10 -32 6 0 10 -7 10 -15 0 -8 5 -15 10 -15 6 0 10 -7 10 -15 0 -8 9 -15 20 -15 15 0 20 -7 20 -25 0 -22 4 -25 35 -25 33 0 35 2 35 35 0 28 -4 35 -20 35 -14 0 -20 7 -20 24 0 13 -6 27 -12 29 -8 3 13 31 55 72 52 52 67 74 67 96 0 27 -3 29 -38 29 -33 0 -45 -8 -110 -73z"></path></g></g><g id="l4yj9diP0o12kAD4jVJmhds" fill="rgb(209,118,44)" style="transform: none;"><g style="transform: none;"><path id="ppAX73RdO" d="M6508 7548 l-1448 -1449 0 -46 c0 -28 10 -68 26 -104 26 -58 27 -59 68 -59 l41 0 1483 1483 c1442 1442 1482 1483 1482 1520 l0 37 -59 0 -60 0 -3 33 c-3 30 -6 32 -43 33 l-40 2 -1447 -1450z"></path><path id="pdzDxAqYQ" d="M3820 6615 c0 -8 -4 -15 -10 -15 -5 0 -10 -4 -10 -10 0 -5 7 -10 16 -10 8 0 12 -4 9 -10 -3 -5 3 -10 14 -10 17 0 21 6 21 35 0 28 -4 35 -20 35 -11 0 -20 -7 -20 -15z"></path><path id="pNYsmbobH" d="M4280 6501 c0 -11 6 -22 13 -24 9 -4 8 -8 -3 -16 -12 -8 -7 -11 23 -11 36 0 37 1 37 35 0 33 -2 35 -35 35 -28 0 -35 -4 -35 -19z"></path><path id="prSEzsCPE" d="M4581 5618 c-105 -105 -191 -194 -191 -198 0 -16 122 -190 133 -190 7 0 101 89 210 198 187 187 197 199 197 235 0 30 -9 50 -42 92 -38 47 -48 54 -79 54 -35 1 -48 -11 -228 -191z"></path><path id="p1HcRN9reo" d="M4087 5124 c-75 -75 -137 -140 -137 -145 0 -4 15 -19 33 -33 36 -28 94 -113 89 -133 -9 -38 46 0 156 110 110 110 138 149 114 159 -10 4 -72 144 -72 163 0 9 -9 15 -23 15 -16 0 -64 -41 -160 -136z"></path><path id="pqVJHwyui" d="M3470 4805 c0 -44 9 -44 38 0 l22 35 -30 0 c-28 0 -30 -3 -30 -35z"></path><path id="p17OmFIS5D" d="M3389 4426 c-46 -46 -95 -95 -108 -109 l-24 -26 24 -21 c47 -40 139 -91 150 -84 7 4 9 3 6 -3 -4 -6 0 -14 9 -17 21 -8 214 179 214 206 0 11 -6 18 -13 16 -20 -5 -105 53 -133 89 -14 18 -29 33 -33 33 -5 0 -46 -38 -92 -84z"></path><path id="p8xS2gECm" d="M2220 4480 c0 -16 7 -20 30 -20 34 0 37 5 16 26 -21 21 -46 17 -46 -6z"></path><path id="pCv4IL8jI" d="M1240 3564 c0 -15 23 -44 34 -44 3 0 6 14 6 30 0 23 -4 30 -20 30 -12 0 -20 -7 -20 -16z"></path><path id="pvnoBoWwW" d="M4270 3541 c0 -44 29 -73 69 -69 l31 3 -50 49 -50 49 0 -32z"></path><path id="puTwOrYdU" d="M687 2856 c-26 -24 -47 -47 -47 -50 0 -3 14 -6 30 -6 23 0 30 4 30 20 0 13 7 20 20 20 16 0 20 7 20 30 0 17 -2 30 -3 30 -2 0 -25 -20 -50 -44z"></path><path id="pmJuva76M" d="M380 2101 c0 -11 -6 -22 -12 -24 -18 -8 10 -27 40 -27 19 0 22 5 22 35 0 31 -3 35 -25 35 -18 0 -25 -5 -25 -19z"></path><path id="pgsHTTtc1" d="M891 1223 c41 -52 49 -54 49 -13 0 27 -3 30 -31 30 -29 0 -30 -2 -18 -17z"></path><path id="p13aJ4MctE" d="M1540 660 c0 -14 46 -60 60 -60 5 0 10 16 10 35 0 33 -2 35 -35 35 -19 0 -35 -5 -35 -10z"></path></g></g><g id="l254DFnTA7u1tih1D3klGt1" fill="rgb(210,130,51)" style="transform: none;"><g style="transform: none;"><path id="pGAYg9K5q" d="M10104 10509 c-7 -11 27 -11 45 0 9 6 5 9 -13 9 -15 0 -29 -4 -32 -9z"></path><path id="p123N9NrOy" d="M10195 10510 c28 -12 47 -12 40 0 -3 6 -18 10 -33 9 -24 0 -25 -1 -7 -9z"></path><path id="p1GbgVniMw" d="M10045 10490 c-7 -12 2 -12 30 0 19 8 19 9 -2 9 -12 1 -25 -3 -28 -9z"></path><path id="p5a0Sfe5Y" d="M10270 10496 c0 -2 13 -9 29 -14 25 -9 29 -8 24 4 -4 12 -53 21 -53 10z"></path><path id="piQKuzDF" d="M10426 10390 c47 -65 54 -73 53 -54 0 11 -14 30 -32 44 -18 13 -27 18 -21 10z"></path><path id="pmMaHmzHp" d="M9563 10309 c-6 -6 -23 -11 -37 -11 -14 0 -26 -4 -26 -9 0 -5 5 -9 10 -9 15 0 80 28 80 34 0 10 -15 7 -27 -5z"></path><path id="ptpRh5AHn" d="M9340 10230 c0 -13 20 -13 40 0 12 8 9 10 -12 10 -16 0 -28 -4 -28 -10z"></path><path id="pJva16SZK" d="M9082 10148 c2 -6 10 -14 16 -16 7 -2 10 2 6 12 -7 18 -28 22 -22 4z"></path><path id="p15IMlzy3n" d="M8908 10078 c-32 -40 -18 -58 43 -58 37 0 39 25 3 34 -19 5 -24 11 -19 26 8 26 -6 25 -27 -2z"></path><path id="pqNyhATNY" d="M10473 10055 c-10 -31 -9 -35 7 -35 13 0 19 10 22 35 2 22 0 35 -7 35 -7 0 -16 -16 -22 -35z"></path><path id="pIW8Wjg6G" d="M8990 10030 c0 -16 7 -20 35 -20 40 0 49 24 13 34 -38 10 -48 7 -48 -14z"></path><path id="pWsMVJ6a3" d="M9190 9980 c0 -16 7 -20 30 -20 17 0 30 -4 30 -10 0 -5 11 -10 25 -10 14 0 25 -4 25 -10 0 -5 16 -10 36 -10 54 0 38 21 -42 52 -84 33 -104 35 -104 8z"></path><path id="p3aHYaoTP" d="M10355 9738 c-12 -29 -12 -33 2 -36 19 -5 19 -4 28 36 4 21 3 32 -5 32 -6 0 -17 -15 -25 -32z"></path><path id="pLOon5pMC" d="M9770 9596 c0 -29 4 -36 20 -36 16 0 20 -7 20 -30 0 -25 4 -30 25 -30 14 0 25 3 25 7 0 10 -60 100 -76 113 -12 11 -14 7 -14 -24z"></path><path id="pEnnDCglQ" d="M10243 9435 c-9 -29 -9 -35 3 -35 8 0 14 9 14 20 0 11 5 20 10 20 6 0 10 7 10 15 0 29 -27 15 -37 -20z"></path><path id="p13XdMYQy3" d="M9940 9266 c0 -20 5 -36 10 -36 6 0 10 -13 10 -30 0 -23 4 -30 20 -30 25 0 25 11 2 74 -22 61 -42 72 -42 22z"></path><path id="pULBPcnxR" d="M10176 9251 c-3 -4 -10 -20 -15 -35 -9 -21 -8 -26 4 -26 8 0 15 7 15 15 0 8 5 15 10 15 6 0 10 9 10 20 0 20 -14 27 -24 11z"></path><path id="ppHg0kctC" d="M9990 9085 c0 -28 4 -35 20 -35 21 0 24 10 14 48 -10 36 -34 27 -34 -13z"></path><path id="p2lKveQlw" d="M10095 9038 c-15 -36 -13 -43 8 -35 16 6 29 67 15 67 -5 0 -15 -15 -23 -32z"></path><path id="pQKRn7lO1" d="M7960 8996 c0 -9 -7 -16 -16 -16 -9 0 -18 -9 -21 -20 -3 -11 -10 -20 -16 -20 -17 0 -2017 -2006 -2017 -2023 0 -10 -8 -17 -17 -17 -22 0 -103 -83 -103 -105 0 -8 -8 -15 -17 -15 -22 0 -103 -83 -103 -105 0 -8 -8 -15 -18 -15 -25 0 -112 -93 -112 -119 0 -14 -6 -21 -20 -21 -26 0 -70 -39 -70 -62 0 -11 -7 -18 -20 -18 -13 0 -20 -7 -20 -20 0 -12 -7 -20 -16 -20 -18 0 -94 -71 -94 -88 0 -7 -5 -12 -12 -12 -17 0 -178 -166 -178 -184 0 -9 -8 -16 -20 -16 -17 0 -20 -7 -20 -40 0 -35 3 -40 24 -40 19 0 22 4 19 24 -4 20 207 235 1453 1480 801 801 1458 1456 1458 1456 1 0 3 -10 4 -22 7 -66 4 -64 67 -59 24 2 17 29 -7 33 -18 2 -24 11 -28 38 -5 32 -8 35 -42 38 -29 2 -38 0 -38 -12z"></path><path id="p1AjiTe0B5" d="M10010 8965 c0 -28 4 -35 20 -35 21 0 24 10 14 48 -10 36 -34 27 -34 -13z"></path><path id="pQPj326Df" d="M10066 8962 c-4 -13 -5 -26 -2 -29 10 -11 18 4 14 29 l-4 23 -8 -23z"></path><path id="pL5tFTsbC" d="M8100 8916 c0 -7 10 -17 23 -21 13 -4 17 -8 10 -12 -22 -8 -14 -23 12 -23 22 0 25 4 25 35 0 33 -2 35 -35 35 -23 0 -35 -5 -35 -14z"></path><path id="p1DixKsceV" d="M4760 5795 c0 -8 -5 -15 -12 -15 -13 0 -358 -343 -358 -356 0 -5 4 -16 10 -24 7 -11 51 28 205 183 109 108 200 197 204 196 11 -1 91 -108 91 -123 0 -8 -6 -17 -12 -19 -7 -3 2 -6 20 -6 30 -1 32 1 32 34 0 24 -5 35 -14 35 -8 0 -16 10 -18 23 -2 14 -11 23 -25 25 -16 2 -23 10 -23 27 0 24 -22 35 -72 35 -18 0 -28 -5 -28 -15z"></path><path id="pXSE24Rzi" d="M4300 5530 c0 -5 4 -10 9 -10 4 0 20 -11 35 -25 l26 -24 0 34 c0 33 -2 35 -35 35 -19 0 -35 -4 -35 -10z"></path><path id="p12leM3jhw" d="M4230 5288 c0 -8 -63 -77 -140 -155 -77 -77 -140 -145 -140 -150 0 -5 5 -14 12 -21 9 -9 36 13 118 96 59 59 126 125 150 146 38 34 42 42 34 64 -10 28 -34 42 -34 20z"></path><path id="p1AVt9JSuc" d="M4520 5269 c0 -6 -7 -9 -15 -5 -13 4 -14 2 -5 -14 15 -28 30 -25 30 5 0 14 -2 25 -5 25 -3 0 -5 -5 -5 -11z"></path><path id="p4K0RTkKy" d="M4319 5083 c-5 -29 -3 -33 17 -33 17 0 22 4 18 15 -4 8 -10 15 -14 15 -5 0 -10 8 -12 18 -3 10 -6 4 -9 -15z"></path><path id="p1MDnIC45" d="M3720 5010 c0 -21 10 -24 48 -14 36 10 27 34 -13 34 -28 0 -35 -4 -35 -20z"></path><path id="p1FUStV356" d="M3590 4945 c0 -31 11 -32 47 0 l28 24 -37 1 c-34 0 -38 -3 -38 -25z"></path><path id="pRUrnAu4G" d="M4450 4896 c0 -29 4 -36 20 -36 13 0 20 -7 20 -20 0 -16 7 -20 38 -20 l37 0 -30 26 c-16 14 -42 39 -57 55 l-28 30 0 -35z"></path><path id="pHxeOEDeL" d="M3490 4833 l1 -38 24 28 c32 36 31 47 0 47 -22 0 -25 -4 -25 -37z"></path><path id="ptvVxF27Z" d="M3430 4695 c0 -24 5 -35 15 -35 8 0 15 6 16 13 0 6 2 22 5 35 3 17 -1 22 -16 22 -16 0 -20 -7 -20 -35z"></path><path id="p12ZEVyhOh" d="M3363 4406 c-57 -56 -103 -107 -103 -113 0 -6 7 -14 16 -17 24 -9 238 206 222 222 -7 7 -17 12 -22 11 -6 0 -57 -46 -113 -103z"></path><path id="p15vLrBoQC" d="M3160 4345 c0 -8 7 -15 15 -15 25 0 29 -1 43 -12 9 -8 12 -4 12 16 0 23 -4 26 -35 26 -24 0 -35 -5 -35 -15z"></path><path id="pNFhO3zR" d="M5091 4303 c8 -10 19 -23 25 -30 7 -7 20 -33 30 -57 22 -52 44 -61 44 -16 0 37 -19 80 -37 80 -7 0 -13 9 -13 20 0 16 -7 20 -31 20 -29 0 -30 -2 -18 -17z"></path><path id="pMCu8fP3L" d="M3461 4213 c0 -7 -7 -13 -14 -13 -18 0 -17 -28 1 -35 20 -8 24 -1 19 32 -2 15 -5 22 -6 16z"></path><path id="peVbRCvf" d="M3030 4052 c0 -31 11 -52 26 -52 8 0 14 -4 14 -10 0 -5 11 -10 25 -10 18 0 25 -5 25 -20 0 -13 7 -20 20 -20 11 0 20 -4 20 -10 0 -11 49 -14 74 -4 10 4 16 18 16 35 0 26 4 29 30 29 19 0 30 5 30 14 0 30 -30 24 -67 -12 -21 -21 -43 -38 -48 -38 -19 1 -134 94 -127 102 4 5 3 6 -2 2 -5 -4 -15 -3 -23 3 -10 9 -13 7 -13 -9z"></path><path id="pqQRa7uVQ" d="M3550 3910 c0 -16 7 -20 35 -20 24 0 35 5 35 15 0 8 -6 15 -12 16 -7 0 -23 2 -35 5 -18 3 -23 -1 -23 -16z"></path><path id="p5fzn9q4G" d="M4690 3754 c0 -21 5 -24 35 -24 22 0 35 5 35 13 0 8 -16 18 -35 24 -33 11 -35 10 -35 -13z"></path><path id="pXR9Jxomc" d="M4485 3635 c22 -20 55 -44 73 -55 l32 -19 0 28 c0 29 -15 41 -51 41 -12 0 -19 7 -19 20 0 17 -7 20 -37 20 l-38 -1 40 -34z"></path><path id="pwJXGrx0K" d="M4310 3493 c0 -33 16 -53 42 -53 10 0 18 -7 18 -15 0 -10 11 -15 35 -15 43 0 44 9 2 37 -17 13 -47 34 -64 49 l-33 27 0 -30z"></path><path id="p1Big2uxO7" d="M3997 3292 c-87 -88 -90 -123 -15 -207 16 -16 28 -36 28 -42 0 -8 14 -13 37 -13 33 0 46 9 110 72 82 82 91 112 51 171 -49 69 -70 87 -108 87 -31 0 -45 -9 -103 -68z m112 46 c-3 -2 -40 -37 -84 -78 l-80 -75 75 78 c41 42 79 77 84 77 5 0 7 -1 5 -2z"></path><path id="pAbPAjGGA" d="M4580 3330 c0 -16 7 -20 35 -20 40 0 49 24 13 34 -38 10 -48 7 -48 -14z"></path><path id="pgrWDXoie" d="M657 2826 c-31 -30 -57 -57 -57 -60 0 -3 12 -6 26 -6 29 0 54 21 54 44 0 9 8 16 20 16 16 0 20 7 20 30 0 17 -1 30 -3 30 -2 0 -29 -24 -60 -54z"></path><path id="phhWlckft" d="M520 1724 c0 -15 23 -44 34 -44 3 0 6 14 6 30 0 23 -4 30 -20 30 -12 0 -20 -7 -20 -16z"></path><path id="prsZ2VoN6" d="M1211 903 c41 -52 49 -54 49 -13 0 27 -3 30 -31 30 -29 0 -30 -2 -18 -17z"></path><path id="pSG7hKbvs" d="M1500 674 c0 -3 6 -12 14 -20 21 -21 46 -17 46 6 0 16 -7 20 -30 20 -16 0 -30 -3 -30 -6z"></path><path id="p4rb7pioe" d="M2700 570 c0 -36 4 -37 35 -5 32 31 31 35 -5 35 -27 0 -30 -3 -30 -30z"></path><path id="pRF72WYGI" d="M1840 474 c0 -3 6 -12 14 -20 21 -21 46 -17 46 6 0 16 -7 20 -30 20 -16 0 -30 -3 -30 -6z"></path><path id="pelJqZ8ed" d="M2040 414 c0 -3 6 -12 14 -20 21 -21 46 -17 46 6 0 16 -7 20 -30 20 -16 0 -30 -3 -30 -6z"></path></g></g><g id="l73crSuAn87wswoCPHH70c4" fill="rgb(220,164,14)" style="transform: none;"><g style="transform: none;"><path id="pnbEGxctV" d="M8810 8110 c0 -13 -7 -20 -20 -20 -13 0 -20 -7 -20 -20 0 -13 -7 -20 -20 -20 -13 0 -20 -7 -20 -20 0 -13 -7 -20 -20 -20 -13 0 -20 -7 -20 -20 0 -13 -7 -20 -20 -20 -13 0 -20 -7 -20 -20 0 -13 -7 -20 -20 -20 -13 0 -20 -7 -20 -20 0 -13 -7 -20 -20 -20 -13 0 -20 -7 -20 -20 0 -13 -7 -20 -20 -20 -16 0 -20 -7 -20 -35 0 -33 2 -35 35 -35 28 0 35 4 35 20 0 13 7 20 20 20 13 0 20 7 20 20 0 13 7 20 20 20 13 0 20 7 20 20 0 13 7 20 20 20 13 0 20 7 20 20 0 13 7 20 20 20 13 0 20 7 20 20 0 13 7 20 20 20 13 0 20 7 20 20 0 13 7 20 20 20 13 0 20 7 20 20 0 13 7 20 20 20 16 0 20 7 20 35 0 33 -2 35 -35 35 -28 0 -35 -4 -35 -20z"></path><path id="p86E51eNj" d="M8433 7745 c-13 -13 -23 -31 -23 -40 0 -8 -9 -15 -20 -15 -13 0 -20 -7 -20 -20 0 -13 -7 -20 -20 -20 -13 0 -20 -7 -20 -20 0 -13 -7 -20 -20 -20 -16 0 -20 -7 -20 -35 0 -33 2 -35 35 -35 28 0 35 4 35 20 0 13 7 20 20 20 13 0 20 7 20 20 0 13 7 20 20 20 13 0 20 7 20 20 0 11 7 20 15 20 27 0 65 47 65 80 0 27 -3 30 -32 29 -21 0 -41 -9 -55 -24z"></path><path id="pfDOFBU7h" d="M8193 7505 c-13 -13 -23 -31 -23 -40 0 -8 -9 -15 -20 -15 -13 0 -20 -7 -20 -20 0 -13 -7 -20 -20 -20 -13 0 -20 -7 -20 -20 0 -13 -7 -20 -20 -20 -16 0 -20 -7 -20 -35 0 -33 2 -35 35 -35 28 0 35 4 35 20 0 13 7 20 20 20 13 0 20 7 20 20 0 13 7 20 20 20 13 0 20 7 20 20 0 11 7 20 15 20 27 0 65 47 65 80 0 27 -3 30 -32 29 -21 0 -41 -9 -55 -24z"></path><path id="pLM5Zlko6" d="M7953 7265 c-13 -13 -23 -31 -23 -40 0 -8 -9 -15 -20 -15 -16 0 -20 -7 -20 -30 0 -27 -3 -30 -30 -30 -27 0 -30 -3 -30 -30 0 -27 -3 -30 -30 -30 -28 0 -30 -3 -30 -35 0 -33 2 -35 35 -35 32 0 35 2 35 30 0 27 3 30 30 30 27 0 30 3 30 30 0 27 3 30 30 30 23 0 30 4 30 20 0 11 7 20 15 20 27 0 65 47 65 80 0 27 -3 30 -32 29 -21 0 -41 -9 -55 -24z"></path><path id="pIWgBdH85" d="M7670 6955 c0 -33 2 -35 35 -35 33 0 35 2 35 35 0 33 -2 35 -35 35 -33 0 -35 -2 -35 -35z"></path><path id="phEkmvMgn" d="M7590 6880 c0 -27 -3 -30 -30 -30 -28 0 -30 -3 -30 -35 0 -33 2 -35 35 -35 32 0 35 2 35 30 0 27 3 30 30 30 28 0 30 3 30 35 0 33 -2 35 -35 35 -32 0 -35 -2 -35 -30z"></path><path id="p1FldPvg0" d="M7430 6715 c0 -33 2 -35 35 -35 33 0 35 2 35 35 0 33 -2 35 -35 35 -33 0 -35 -2 -35 -35z"></path><path id="p15ZxTtSAU" d="M4688 5436 c-36 -30 -35 -36 2 -36 27 0 30 3 30 30 0 17 -1 30 -2 30 -2 0 -15 -11 -30 -24z"></path><path id="p1Cf2tq6BD" d="M4542 5293 l-43 -44 43 -52 c43 -51 43 -51 46 -23 5 39 -4 56 -28 56 -15 0 -20 7 -20 25 0 21 5 25 30 25 27 0 30 3 30 30 0 17 -3 30 -7 29 -5 0 -27 -21 -51 -46z"></path><path id="pZOSoxNLP" d="M4655 5085 c163 -149 395 -262 614 -300 106 -19 111 -19 111 3 0 18 -50 30 -202 49 -21 3 -38 9 -38 13 0 9 -90 40 -114 40 -9 0 -16 5 -16 10 0 6 -7 10 -16 10 -8 0 -22 7 -30 15 -9 8 -26 15 -40 15 -14 0 -24 6 -24 15 0 8 -11 17 -25 21 -14 3 -25 10 -25 15 0 5 -7 9 -15 9 -8 0 -15 5 -15 10 0 6 -7 10 -15 10 -8 0 -15 5 -15 10 0 6 -9 10 -20 10 -11 0 -20 7 -20 15 0 10 -10 15 -29 15 -25 0 -30 4 -33 28 -3 24 -8 27 -43 30 l-40 2 50 -45z"></path><path id="pFvLpSPZC" d="M4312 5060 c-10 -17 -10 -20 3 -20 8 0 15 -7 15 -15 0 -8 5 -15 10 -15 6 0 10 -7 10 -15 0 -8 5 -15 10 -15 6 0 10 -7 10 -15 0 -8 7 -15 15 -15 8 0 15 -8 15 -18 0 -26 20 -42 53 -42 l30 0 -27 33 c-15 17 -46 60 -69 94 -23 35 -47 63 -52 63 -6 0 -16 -9 -23 -20z"></path><path id="p17ar5nRUm" d="M4208 4956 c-36 -30 -35 -36 2 -36 27 0 30 3 30 30 0 17 -1 30 -2 30 -2 0 -15 -11 -30 -24z"></path><path id="pINNRnPCT" d="M4090 4840 c-8 -12 -15 -25 -14 -30 1 -6 2 -17 3 -25 2 -23 28 -18 35 8 8 31 7 67 -2 67 -4 0 -14 -9 -22 -20z"></path><path id="pLlrqj7wU" d="M4510 4831 c0 -26 4 -31 25 -31 18 0 25 -5 25 -20 0 -11 7 -20 15 -20 8 0 15 -4 15 -10 0 -5 7 -10 15 -10 8 0 15 -4 15 -10 0 -5 6 -10 14 -10 8 0 16 -4 18 -9 5 -13 105 -61 128 -61 11 0 20 -4 20 -9 0 -12 141 -48 223 -57 57 -5 67 -4 67 9 0 11 -13 18 -37 22 -201 32 -346 95 -515 226 l-28 21 0 -31z"></path><path id="phk0XXfF1" d="M5409 4728 c10 -26 0 -58 -22 -76 -13 -11 -64 -22 -174 -38 -47 -7 -44 -34 3 -34 53 0 174 22 174 31 0 5 9 9 20 9 25 0 40 35 40 91 0 35 -3 39 -25 39 -21 0 -23 -3 -16 -22z"></path><path id="pbVgrsekn" d="M4068 4650 l-16 -50 23 0 c24 0 35 22 35 73 0 45 -25 31 -42 -23z"></path><path id="ptTtx6MU3" d="M4027 4561 c-19 -32 -133 -141 -148 -141 -5 0 -9 -4 -9 -10 0 -5 16 -10 35 -10 24 0 35 5 35 15 0 8 8 15 17 15 23 0 73 49 73 72 0 10 7 18 15 18 10 0 15 11 15 35 0 43 -10 44 -33 6z"></path><path id="pfvlmqPqz" d="M2276 4484 c-17 -45 -1 -64 55 -64 35 0 36 6 7 31 -19 16 -21 20 -8 28 8 6 11 13 7 18 -5 4 -13 1 -18 -7 -8 -11 -12 -12 -16 -2 -7 17 -20 15 -27 -4z"></path><path id="p1EPpzVRGk" d="M2430 4387 c0 -19 17 -31 103 -72 56 -28 104 -53 105 -57 2 -5 10 -8 19 -8 8 0 21 -7 29 -15 9 -8 26 -15 40 -15 15 0 24 -6 24 -15 0 -8 5 -15 11 -15 6 0 17 -7 25 -15 9 -8 26 -15 40 -15 15 0 24 -6 24 -15 0 -8 7 -15 15 -15 8 0 15 -4 15 -10 0 -5 7 -10 15 -10 8 0 15 -4 15 -10 0 -5 7 -10 15 -10 8 0 15 -4 15 -10 0 -5 7 -10 15 -10 8 0 15 -4 15 -10 0 -5 7 -10 15 -10 8 0 15 -4 15 -10 0 -5 16 -10 36 -10 31 0 35 2 25 14 -40 48 -489 311 -607 356 -21 8 -24 7 -24 -13z"></path><path id="pZwEj73Wv" d="M3803 4391 c-34 -9 -53 -19 -53 -29 0 -11 10 -14 50 -10 57 6 63 9 58 35 -3 17 -6 18 -55 4z"></path><path id="p2DIls9uT" d="M4825 4403 c-59 -12 -105 -36 -105 -53 0 -14 -9 -20 -32 -22 -28 -2 -34 -8 -36 -30 -3 -22 -8 -28 -29 -28 -16 0 -27 -7 -30 -20 -3 -11 -9 -20 -14 -20 -5 0 -9 -7 -9 -15 0 -8 -4 -15 -10 -15 -5 0 -10 -16 -10 -35 0 -19 4 -35 8 -35 5 0 26 27 48 61 69 107 165 169 276 177 45 3 81 0 112 -11 l46 -16 0 24 c0 20 -7 25 -50 34 -50 11 -126 13 -165 4z"></path><path id="pgsxlPeur" d="M3609 4358 l-31 -33 26 -3 c30 -4 56 18 56 47 0 30 -15 26 -51 -11z"></path><path id="puAFEFIr3" d="M3100 4335 c0 -8 -7 -15 -15 -15 -17 0 -19 -18 -5 -40 9 -13 13 -12 28 6 9 12 27 27 40 33 33 17 27 31 -13 31 -24 0 -35 -5 -35 -15z"></path><path id="pVfCN41Yt" d="M3190 4343 c0 -5 16 -18 35 -31 l35 -22 0 30 c0 28 -3 30 -35 30 -19 0 -35 -3 -35 -7z"></path><path id="pzpodpKL9" d="M5160 4188 c0 -30 13 -58 26 -58 9 0 14 12 14 35 0 28 -4 35 -20 35 -11 0 -20 -6 -20 -12z"></path><path id="pVpna9z22" d="M3440 4181 c0 -15 47 -37 131 -61 90 -24 99 -25 99 -2 0 13 -19 23 -78 40 -96 29 -152 38 -152 23z"></path><path id="pJuXqz3N6" d="M3680 4117 c0 -9 16 -19 43 -25 54 -14 81 -43 81 -87 0 -44 -18 -63 -70 -76 -53 -14 -60 -39 -11 -39 56 0 77 10 77 36 0 17 6 24 20 24 18 0 20 7 20 55 0 30 -4 55 -10 55 -5 0 -10 9 -10 20 0 11 -6 20 -14 20 -8 0 -16 5 -18 11 -2 6 -27 14 -56 17 -42 4 -52 2 -52 -11z"></path><path id="pPMKvBDPB" d="M4520 4080 c0 -45 23 -57 34 -17 11 41 7 57 -14 57 -17 0 -20 -7 -20 -40z"></path><path id="p4qfPjSih" d="M3244 3989 c-25 -25 -45 -38 -56 -35 -32 8 -21 -38 15 -64 193 -143 598 -552 705 -712 17 -26 32 -38 48 -38 28 0 30 8 10 36 -14 19 -10 25 59 94 72 71 75 73 90 55 14 -19 14 -18 15 14 0 45 -102 171 -328 402 -167 171 -174 177 -220 183 -83 11 -164 35 -233 71 l-66 34 -39 -40z"></path><path id="pTHmQ97Vo" d="M5135 3970 c-20 -38 -19 -40 10 -40 22 0 25 4 25 35 0 43 -14 45 -35 5z"></path><path id="p1D1tREfmk" d="M4520 3955 c0 -28 4 -35 20 -35 21 0 24 10 14 48 -10 36 -34 27 -34 -13z"></path><path id="p9UbBw4N4" d="M4560 3865 c0 -32 2 -35 30 -35 l30 0 -22 35 c-29 44 -38 44 -38 0z"></path><path id="poWGccov6" d="M4193 3863 c-7 -2 -13 -11 -13 -19 0 -8 -6 -14 -14 -14 -33 0 -35 -90 -5 -161 12 -27 25 -49 30 -49 5 0 9 -7 9 -15 0 -9 9 -15 25 -15 22 0 25 -4 25 -35 0 -38 13 -49 50 -43 20 3 20 5 -13 44 -20 22 -51 70 -71 105 -51 93 -47 144 14 169 41 17 79 0 119 -53 35 -48 69 -86 94 -106 15 -12 17 -10 17 18 0 28 -3 31 -30 31 -28 0 -30 3 -30 35 0 24 -5 35 -15 35 -8 0 -15 9 -15 20 0 11 -7 20 -15 20 -8 0 -15 6 -15 14 0 8 -7 17 -16 20 -18 7 -113 7 -131 -1z"></path><path id="p17VeTcQCI" d="M4950 3785 c-14 -8 -49 -19 -77 -25 -37 -8 -53 -16 -53 -27 0 -13 9 -15 58 -9 31 4 59 11 60 16 2 6 15 10 28 10 19 0 24 5 24 25 0 29 -5 30 -40 10z"></path><path id="p1GA2FWWMX" d="M4730 3740 c0 -16 7 -20 35 -20 40 0 49 24 13 34 -38 10 -48 7 -48 -14z"></path><path id="pj3nXbTW0" d="M4580 3572 c0 -12 52 -40 124 -67 l66 -25 0 25 c0 21 -6 26 -40 31 -22 4 -40 10 -40 14 0 12 -49 30 -80 30 -17 0 -30 -4 -30 -8z"></path><path id="ppjuLHhAN" d="M4804 3448 c45 -64 -14 -138 -98 -123 -32 6 -36 5 -36 -14 0 -19 6 -21 65 -21 55 0 68 3 90 25 22 22 25 35 25 90 l0 65 -31 0 c-29 0 -30 -1 -15 -22z"></path><path id="pBHMYjJue" d="M4400 3416 c0 -26 16 -36 61 -36 40 0 36 12 -10 38 -48 27 -51 27 -51 -2z"></path><path id="pmy5CGqEc" d="M3990 3098 c0 -27 4 -38 15 -38 8 0 15 -9 15 -20 0 -16 7 -20 35 -20 34 0 35 1 35 37 l0 36 -21 -19 c-17 -14 -23 -16 -27 -6 -2 7 -15 25 -28 40 l-23 27 -1 -37z"></path></g></g><g id="l2VYJqUKxujnVBWjcwzXUM" fill="rgb(239,83,80)" style="transform: none;"><g style="transform: none;"><path id="p16GGXGvM7" d="M10281 10497 c2 -2 26 -16 52 -31 43 -25 47 -25 35 -7 -7 12 -21 21 -30 21 -10 0 -18 5 -18 10 0 6 -10 10 -22 10 -12 0 -19 -1 -17 -3z"></path><path id="pu6lfl4Jb" d="M9980 10470 c0 -13 11 -13 30 0 12 8 11 10 -7 10 -13 0 -23 -4 -23 -10z"></path><path id="pXRV5wXDV" d="M9660 10350 c0 -13 11 -13 30 0 12 8 11 10 -7 10 -13 0 -23 -4 -23 -10z"></path><path id="pLIeo8FvO" d="M9500 10289 c0 -4 10 -6 21 -4 32 6 34 13 4 13 -14 0 -25 -4 -25 -9z"></path><path id="pI5Phyyy7" d="M9340 10230 c0 -12 8 -12 35 0 18 8 17 9 -7 9 -16 1 -28 -3 -28 -9z"></path><path id="p1C3dz8mXJ" d="M9180 10170 c0 -13 11 -13 30 0 12 8 11 10 -7 10 -13 0 -23 -4 -23 -10z"></path><path id="p5F6tYYti" d="M10266 9494 c-4 -15 -5 -29 -2 -31 8 -8 36 24 36 41 0 26 -27 18 -34 -10z"></path><path id="pO9VKj6Pz" d="M10146 9174 c-4 -15 -5 -29 -2 -31 8 -8 36 24 36 41 0 26 -27 18 -34 -10z"></path><path id="pEjSFc96T" d="M10020 8850 c0 -34 5 -37 26 -16 21 21 17 46 -6 46 -16 0 -20 -7 -20 -30z"></path><path id="p1CyDdXPQL" d="M9960 8690 c0 -34 5 -37 26 -16 21 21 17 46 -6 46 -16 0 -20 -7 -20 -30z"></path><path id="phOpdg0Xa" d="M9800 8270 c0 -34 5 -37 26 -16 21 21 17 46 -6 46 -16 0 -20 -7 -20 -30z"></path><path id="p11B7IhURK" d="M9640 7850 c0 -34 5 -37 26 -16 21 21 17 46 -6 46 -16 0 -20 -7 -20 -30z"></path><path id="p12sI5l02n" d="M9500 7450 c0 -34 5 -37 26 -16 21 21 17 46 -6 46 -16 0 -20 -7 -20 -30z"></path><path id="pQNgp9pJL" d="M4733 7385 c-19 -21 -16 -25 17 -25 23 0 30 4 30 20 0 23 -29 26 -47 5z"></path><path id="pQbpCCt3T" d="M4323 7055 c-30 -31 -29 -35 7 -35 27 0 30 3 30 30 0 36 -8 37 -37 5z"></path><path id="pT4LtdM1e" d="M4063 6835 c-30 -31 -29 -35 7 -35 17 0 30 5 30 10 0 6 9 10 20 10 13 0 20 7 20 20 0 29 -49 26 -77 -5z"></path><path id="p197k2JvXD" d="M3873 6745 c-19 -21 -16 -25 17 -25 23 0 30 4 30 20 0 23 -29 26 -47 5z"></path><path id="p1AXTkXqZn" d="M3920 6494 c0 -3 6 -12 14 -20 21 -21 46 -17 46 6 0 16 -7 20 -30 20 -16 0 -30 -3 -30 -6z"></path><path id="pO5jGudbY" d="M1288 3483 c6 -2 12 -11 12 -19 0 -20 -45 -64 -65 -64 -8 0 -15 -7 -15 -16 0 -17 -23 -44 -38 -44 -15 0 -642 -633 -642 -647 0 -7 -4 -13 -8 -13 -5 0 -15 -12 -23 -27 -8 -16 -22 -35 -31 -44 -10 -9 -18 -24 -18 -33 0 -9 -4 -16 -10 -16 -5 0 -10 -13 -10 -30 0 -16 -4 -30 -10 -30 -5 0 -10 -13 -10 -30 0 -16 -4 -30 -10 -30 -5 0 -10 -18 -10 -40 0 -22 -4 -40 -10 -40 -6 0 -10 -40 -10 -99 0 -70 -4 -101 -12 -104 -10 -4 -9 -8 2 -16 25 -18 58 -13 65 9 10 31 45 59 85 70 91 25 367 -108 617 -297 194 -146 461 -394 594 -552 30 -36 61 -72 70 -80 30 -31 147 -188 213 -286 120 -180 216 -406 202 -476 -7 -38 -35 -79 -52 -79 -8 0 -14 -4 -14 -10 0 -5 -13 -10 -30 -10 -25 0 -30 -4 -30 -25 l0 -25 115 0 c70 0 115 4 115 10 0 6 27 10 60 10 33 0 60 4 60 10 0 6 14 10 30 10 17 0 30 5 30 10 0 6 9 10 20 10 11 0 20 5 20 10 0 6 13 10 28 10 16 0 34 8 42 20 8 11 21 20 30 20 9 0 22 9 30 20 8 11 20 20 27 20 7 0 189 176 404 391 290 290 394 388 400 378 6 -9 9 0 9 27 0 24 -6 47 -15 54 -8 6 -17 22 -21 33 -32 102 -330 556 -533 812 -398 502 -884 901 -1459 1196 -93 48 -123 59 -161 58 -25 0 -40 -3 -33 -6z"></path><path id="p47VPRl2l" d="M400 1984 c0 -15 23 -44 34 -44 3 0 6 14 6 30 0 23 -4 30 -20 30 -12 0 -20 -7 -20 -16z"></path><path id="pJH94BJ7h" d="M500 1764 c0 -15 23 -44 34 -44 3 0 6 14 6 30 0 23 -4 30 -20 30 -12 0 -20 -7 -20 -16z"></path><path id="pgLJdvtqP" d="M548 1684 c6 -3 12 -13 12 -23 0 -9 9 -23 20 -31 11 -8 20 -20 20 -28 0 -13 23 -42 34 -42 3 0 6 14 6 30 0 19 -5 30 -14 30 -9 0 -16 12 -18 33 -3 29 -6 32 -38 34 -19 1 -29 0 -22 -3z"></path><path id="p14v8NNUkI" d="M760 1379 c0 -6 15 -25 33 -41 l32 -31 3 27 c2 15 1 34 -2 42 -6 16 -66 19 -66 3z"></path><path id="p6XTI5QPM" d="M907 1206 c10 -13 26 -29 36 -35 15 -10 17 -7 17 24 0 33 -2 35 -35 35 l-36 0 18 -24z"></path><path id="p1zCL7VNX" d="M1040 1075 c0 -3 11 -17 25 -30 31 -32 35 -31 35 5 0 27 -3 30 -30 30 -16 0 -30 -2 -30 -5z"></path><path id="piwttIUjT" d="M1420 734 c0 -3 6 -12 14 -20 21 -21 46 -17 46 6 0 16 -7 20 -30 20 -16 0 -30 -3 -30 -6z"></path><path id="p1GfZ6tm5o" d="M1560 632 c0 -9 30 -32 42 -32 8 0 20 -9 28 -20 8 -11 22 -20 32 -20 10 0 18 -4 18 -10 0 -5 9 -10 20 -10 13 0 20 7 20 20 0 11 -6 20 -14 20 -8 0 -16 7 -20 15 -3 9 -18 15 -36 15 -20 0 -30 5 -30 15 0 11 -9 15 -30 13 -16 -1 -30 -4 -30 -6z"></path><path id="pX8SgUQXg" d="M1750 515 c0 -8 7 -15 15 -15 8 0 15 -4 15 -10 0 -5 9 -10 20 -10 11 0 20 -4 20 -10 0 -5 9 -10 20 -10 13 0 20 7 20 20 0 11 -6 20 -14 20 -8 0 -16 7 -20 15 -3 9 -19 15 -41 15 -24 0 -35 -4 -35 -15z"></path></g></g><g id="l3hJdFHepuFAB3JgEC2sHlO" fill="rgb(255,159,0)" style="transform: none;"><g style="transform: none;"><path id="pmPWre0pw" d="M7311 9435 c-24 -7 -48 -12 -55 -11 -6 2 -8 1 -3 -1 17 -10 5 -23 -23 -23 -23 0 -30 -4 -30 -20 0 -13 -7 -20 -20 -20 -13 0 -20 -7 -20 -20 0 -13 -7 -20 -20 -20 -11 0 -20 -7 -20 -15 0 -8 -83 -98 -185 -200 -102 -102 -192 -185 -200 -185 -8 0 -15 -7 -15 -15 0 -19 -1545 -1565 -1564 -1565 -8 0 -17 6 -19 13 -3 6 -6 -1 -6 -17 -1 -23 12 -40 66 -90 111 -102 267 -366 295 -500 10 -44 9 -60 -2 -80 -7 -15 -17 -26 -21 -26 -5 0 -17 21 -28 46 l-20 45 -48 -3 -48 -3 1 -45 c0 -25 9 -65 19 -91 17 -43 17 -47 0 -82 -10 -21 -26 -42 -36 -47 -16 -9 -20 -5 -28 27 -6 21 -20 53 -31 71 -18 28 -25 32 -65 32 l-45 0 0 -45 c0 -26 8 -61 20 -82 34 -63 21 -115 -41 -167 -43 -37 -55 -22 -66 79 l-8 80 -45 0 -45 0 -9 -59 c-13 -82 7 -276 37 -360 13 -35 52 -111 85 -168 75 -127 112 -215 112 -268 0 -39 1 -40 36 -40 31 0 37 4 51 37 23 56 11 137 -32 223 -38 76 -43 100 -20 100 20 0 225 205 225 225 0 8 7 15 16 15 20 0 224 204 224 224 0 9 7 16 16 16 20 0 224 204 224 224 0 9 7 16 15 16 20 0 225 205 225 225 0 8 7 15 15 15 20 0 225 205 225 225 0 8 7 15 15 15 20 0 225 205 225 225 0 8 7 15 15 15 20 0 225 205 225 225 0 8 7 15 15 15 20 0 225 205 225 225 0 8 7 15 15 15 20 0 225 205 225 225 0 8 7 15 15 15 20 0 225 205 225 225 0 8 7 15 15 15 20 0 225 205 225 225 0 8 7 15 15 15 20 0 225 205 225 225 0 8 7 15 15 15 27 0 65 47 65 80 0 28 -2 30 -37 29 -31 -2 -33 -3 -10 -6 15 -2 27 -6 27 -9 0 -6 -2979 -2984 -2986 -2984 -3 0 -21 34 -41 76 l-35 77 1458 1458 c803 803 1462 1459 1466 1459 5 0 8 -11 8 -24 0 -35 10 -56 26 -56 9 0 14 12 14 35 0 19 -4 35 -10 35 -5 0 -10 17 -10 38 0 42 -31 145 -61 203 -30 59 -114 144 -176 177 -32 17 -92 38 -133 46 -93 20 -288 20 -349 1z"></path><path id="pgrLOvZTW" d="M8852 8161 c-12 -10 -22 -26 -22 -35 0 -9 -8 -16 -20 -16 -13 0 -20 -7 -20 -20 0 -13 -7 -20 -20 -20 -13 0 -20 -7 -20 -20 0 -13 -7 -20 -20 -20 -13 0 -20 -7 -20 -20 0 -13 -7 -20 -20 -20 -13 0 -20 -7 -20 -20 0 -13 -7 -20 -20 -20 -13 0 -20 -7 -20 -20 0 -13 -7 -20 -20 -20 -13 0 -20 -7 -20 -20 0 -13 -7 -20 -20 -20 -13 0 -20 -7 -20 -20 0 -11 -7 -20 -15 -20 -27 0 -65 -47 -65 -80 0 -27 3 -30 30 -30 33 0 80 38 80 65 0 8 9 15 20 15 13 0 20 7 20 20 0 13 7 20 20 20 13 0 20 7 20 20 0 13 7 20 20 20 13 0 20 7 20 20 0 13 7 20 20 20 13 0 20 7 20 20 0 13 7 20 20 20 13 0 20 7 20 20 0 13 7 20 20 20 13 0 20 7 20 20 0 13 7 20 20 20 15 0 20 -7 20 -24 0 -19 6 -25 25 -28 22 -3 -221 -250 -1845 -1873 -1028 -1029 -1870 -1875 -1870 -1882 0 -6 -4 -13 -8 -15 -5 -1 -5 -18 0 -36 6 -22 14 -32 28 -32 11 0 20 7 20 15 0 8 5 15 12 15 7 0 860 847 1895 1883 1730 1729 1883 1885 1883 1915 0 30 -2 32 -36 32 l-37 0 7 43 c4 23 10 61 13 85 l6 42 -40 0 c-25 0 -48 -7 -61 -19z"></path><path id="p1ZVZmYTf" d="M8390 7690 c0 -13 -7 -20 -20 -20 -13 0 -20 -7 -20 -20 0 -13 -7 -20 -20 -20 -13 0 -20 -7 -20 -20 0 -11 -7 -20 -15 -20 -27 0 -65 -47 -65 -80 0 -27 3 -30 30 -30 33 0 80 38 80 65 0 8 9 15 20 15 13 0 20 7 20 20 0 13 7 20 20 20 13 0 20 7 20 20 0 13 7 20 20 20 16 0 20 7 20 35 0 33 -2 35 -35 35 -28 0 -35 -4 -35 -20z"></path><path id="p1A5Ac9EkY" d="M8150 7450 c0 -13 -7 -20 -20 -20 -13 0 -20 -7 -20 -20 0 -13 -7 -20 -20 -20 -13 0 -20 -7 -20 -20 0 -11 -7 -20 -15 -20 -27 0 -65 -47 -65 -80 0 -27 3 -30 30 -30 33 0 80 38 80 65 0 8 9 15 20 15 13 0 20 7 20 20 0 13 7 20 20 20 13 0 20 7 20 20 0 13 7 20 20 20 16 0 20 7 20 35 0 33 -2 35 -35 35 -28 0 -35 -4 -35 -20z"></path><path id="pCTBzwzjp" d="M7910 7210 c0 -13 -7 -20 -20 -20 -16 0 -20 -7 -20 -35 0 -33 2 -35 35 -35 28 0 35 4 35 20 0 13 7 20 20 20 16 0 20 7 20 35 0 33 -2 35 -35 35 -28 0 -35 -4 -35 -20z"></path><path id="pdHy4qnxt" d="M7750 7035 c0 -33 2 -35 35 -35 33 0 35 2 35 35 0 33 -2 35 -35 35 -33 0 -35 -2 -35 -35z"></path><path id="pFs2AptLd" d="M7630 6915 c0 -33 2 -35 35 -35 33 0 35 2 35 35 0 33 -2 35 -35 35 -33 0 -35 -2 -35 -35z"></path><path id="pIuzyoiJd" d="M7510 6795 c0 -33 2 -35 35 -35 33 0 35 2 35 35 0 33 -2 35 -35 35 -33 0 -35 -2 -35 -35z"></path><path id="p19AKLvkPO" d="M3920 6772 c0 -4 -13 -13 -30 -20 -42 -19 -39 -42 5 -42 33 0 35 2 35 35 0 19 -2 35 -5 35 -3 0 -5 -3 -5 -8z"></path><path id="pvv25qMNH" d="M7390 6675 c0 -33 2 -35 35 -35 33 0 35 2 35 35 0 33 -2 35 -35 35 -33 0 -35 -2 -35 -35z"></path><path id="pVY2Ntmee" d="M4286 6650 c-33 -17 -78 -42 -100 -55 -23 -13 -69 -32 -103 -44 -83 -26 -122 -16 -186 50 -55 57 -81 64 -75 20 3 -21 1 -28 -9 -24 -7 3 -13 0 -13 -6 0 -6 6 -11 14 -11 9 0 12 -7 9 -20 -4 -14 0 -20 12 -20 9 0 30 -13 45 -30 15 -16 32 -30 37 -30 15 0 63 -25 63 -32 0 -5 13 -8 29 -8 17 0 33 -4 36 -10 3 -5 28 -10 55 -10 27 0 52 5 55 10 3 6 24 10 46 10 21 0 39 5 39 10 0 6 9 10 19 10 11 0 21 6 24 13 2 6 8 9 11 5 4 -3 -424 -438 -952 -966 -528 -528 -958 -963 -955 -966 3 -3 19 9 34 25 25 27 34 30 62 25 74 -14 572 -280 599 -319 3 -6 16 2 30 17 13 16 37 29 58 32 29 5 42 0 74 -25 l39 -32 111 108 111 108 -20 35 c-16 28 -20 53 -20 125 0 81 3 95 30 145 17 30 50 75 75 100 25 25 70 59 100 75 50 27 64 30 145 30 72 0 97 -4 124 -20 l33 -20 145 147 146 146 -17 81 c-27 136 -19 172 39 187 35 9 62 -11 90 -66 14 -28 29 -50 33 -50 4 0 93 86 197 190 104 105 194 190 200 190 9 0 22 -14 88 -97 17 -22 16 -23 -186 -227 -113 -113 -202 -208 -199 -211 3 -3 16 -5 29 -5 19 0 23 5 23 30 0 25 4 30 25 30 35 0 115 80 115 115 0 20 5 25 26 25 18 0 47 22 105 80 43 44 82 80 87 80 4 0 19 -11 34 -25 15 -14 32 -25 38 -25 5 0 10 -4 10 -8 0 -14 48 -32 85 -32 33 0 35 2 35 33 0 27 -6 36 -36 52 -59 31 -155 143 -211 245 -69 125 -105 219 -152 392 -65 238 -116 361 -173 415 -27 26 -37 28 -116 31 -81 3 -91 1 -146 -28z"></path><path id="p1FPV5bupI" d="M5813 5117 c-32 -33 -43 -52 -43 -75 0 -29 3 -32 33 -32 45 0 117 73 117 118 0 29 -3 32 -32 32 -26 0 -43 -10 -75 -43z"></path><path id="pr6S0oMhY" d="M4195 4944 c-111 -111 -117 -119 -92 -122 35 -4 117 75 117 113 0 20 5 25 25 25 36 0 77 43 73 77 -3 24 -12 18 -123 -93z"></path><path id="pDvuJfJLA" d="M5640 4930 c0 -13 -7 -20 -20 -20 -13 0 -20 -7 -20 -20 0 -13 -7 -20 -18 -20 -23 0 -62 -40 -62 -63 0 -10 -8 -17 -20 -17 -13 0 -20 -7 -20 -20 0 -13 -7 -20 -20 -20 -13 0 -20 -7 -20 -20 0 -11 -4 -20 -10 -20 -5 0 -12 -11 -16 -25 -6 -25 -49 -55 -77 -55 -19 0 -57 -42 -57 -63 0 -11 -8 -17 -21 -17 -12 0 -23 -8 -26 -20 -3 -11 -12 -20 -19 -20 -8 0 -14 -9 -14 -20 0 -13 -7 -20 -20 -20 -13 0 -20 -7 -20 -20 0 -11 -7 -20 -15 -20 -21 0 -85 -65 -85 -86 0 -18 27 -43 48 -44 18 0 82 66 82 85 0 8 9 15 20 15 13 0 20 7 20 20 0 13 7 20 20 20 11 0 20 6 20 14 0 7 9 16 20 19 12 3 20 14 20 26 0 13 6 21 18 21 23 0 142 120 142 143 0 10 8 17 20 17 13 0 20 7 20 20 0 13 7 20 20 20 13 0 20 7 20 20 0 13 7 20 18 20 23 0 62 40 62 63 0 10 8 17 20 17 13 0 20 7 20 20 0 13 7 20 20 20 16 0 20 7 20 35 0 33 -2 35 -35 35 -28 0 -35 -4 -35 -20z"></path><path id="pwriVq6To" d="M2337 4508 c-23 -26 -30 -29 -38 -17 -8 12 -10 12 -19 -1 -6 -8 -9 -24 -8 -35 2 -16 12 -21 43 -23 36 -2 38 -1 23 11 -24 19 -23 24 12 57 17 15 30 31 30 34 0 14 -17 3 -43 -26z"></path><path id="pRWOh0zWc" d="M3510 4260 c-80 -78 -83 -84 -63 -93 20 -9 30 -2 88 57 53 54 66 72 63 93 -3 25 -8 22 -88 -57z"></path><path id="pjCtCkb5k" d="M4490 3795 l-85 -85 33 -32 32 -33 84 84 85 84 -27 33 c-15 18 -29 33 -32 33 -3 1 -43 -37 -90 -84z"></path><path id="pGFEDaSgw" d="M4618 3692 c-43 -43 -78 -82 -78 -87 0 -6 15 -20 32 -32 l32 -23 83 84 c99 101 104 117 38 129 -27 6 -38 -1 -107 -71z"></path><path id="pHD1CyTOJ" d="M4168 3473 l-97 -98 30 -35 29 -34 100 99 99 99 -27 32 c-15 18 -29 33 -32 33 -3 1 -49 -43 -102 -96z"></path><path id="pvkVS3EzR" d="M4277 3351 c-99 -99 -105 -108 -90 -124 13 -13 14 -19 3 -31 -11 -14 -9 -16 15 -16 22 0 51 23 137 108 59 59 108 112 108 117 0 6 -15 20 -34 32 l-33 21 -106 -107z"></path></g></g><g id="l3XEdZ62Oxb2YEfn6pWLwb9" fill="rgb(241,149,52)" style="transform: none;"><g style="transform: none;"><path id="pfeAehlLT" d="M10310 10485 c0 -1 19 -15 43 -30 l42 -28 -23 26 c-19 20 -62 43 -62 32z"></path><path id="pjlA9mHTN" d="M8373 9866 c-37 -18 -29 -38 15 -34 30 2 38 7 40 26 4 25 -16 28 -55 8z"></path><path id="pE4g9VyzE" d="M8213 9806 c-35 -17 -28 -36 12 -36 31 0 35 3 35 25 0 27 -11 29 -47 11z"></path><path id="pmmsP45CB" d="M8053 9746 c-37 -18 -29 -38 15 -34 30 2 38 7 40 26 4 25 -16 28 -55 8z"></path><path id="p8Mrupg3K" d="M7673 9606 c-37 -18 -29 -38 15 -34 30 2 38 7 40 26 4 25 -16 28 -55 8z"></path><path id="pK1bcYDOl" d="M7418 9506 c-26 -20 -22 -26 17 -26 28 0 35 4 35 20 0 23 -26 26 -52 6z"></path><path id="p34CUgnO8" d="M7380 9492 c0 -4 -13 -13 -30 -20 -40 -18 -38 -32 5 -32 32 0 35 2 35 30 0 17 -2 30 -5 30 -3 0 -5 -3 -5 -8z"></path><path id="p1HsvDFLaR" d="M8014 8938 c3 -13 5 -26 5 -30 1 -5 8 -8 16 -8 10 0 15 10 15 30 0 23 -4 30 -20 30 -15 0 -19 -5 -16 -22z"></path><path id="pIrgr7dFr" d="M9800 8275 c0 -39 6 -43 26 -17 20 26 17 52 -6 52 -16 0 -20 -7 -20 -35z"></path><path id="p1BMHertDf" d="M7143 6448 c-1443 -1446 -1722 -1729 -1728 -1758 -7 -33 -7 -34 11 -20 11 7 -10 -16 -46 -53 -35 -37 -67 -67 -69 -67 -3 0 17 23 44 50 54 55 54 57 2 35 -36 -15 -307 -274 -307 -294 0 -5 9 -15 20 -21 30 -16 78 -87 91 -132 7 -26 15 -38 25 -36 8 2 872 860 1919 1908 1757 1757 1905 1907 1905 1937 0 22 -5 33 -15 33 -8 0 -25 5 -39 11 -24 11 -25 15 -19 70 l6 59 -39 0 c-39 0 -56 -16 -1761 -1722z m1747 1449 c0 -1 -26 -27 -57 -57 l-58 -55 55 58 c50 53 60 62 60 54z m-120 -120 c0 -1 -53 -54 -117 -117 l-118 -115 115 118 c107 109 120 122 120 114z m-240 -240 c0 -1 -53 -54 -117 -117 l-118 -115 115 118 c107 109 120 122 120 114z m-240 -240 c0 -1 -53 -54 -117 -117 l-118 -115 115 118 c107 109 120 122 120 114z m-240 -240 c0 -1 -53 -54 -117 -117 l-118 -115 115 118 c107 109 120 122 120 114z m-240 -240 c0 -1 -53 -54 -117 -117 l-118 -115 115 118 c107 109 120 122 120 114z m-240 -240 c0 -1 -53 -54 -117 -117 l-118 -115 115 118 c107 109 120 122 120 114z m-240 -240 c0 -1 -53 -54 -117 -117 l-118 -115 115 118 c107 109 120 122 120 114z m-240 -240 c0 -1 -53 -54 -117 -117 l-118 -115 115 118 c107 109 120 122 120 114z m-240 -240 c0 -1 -53 -54 -117 -117 l-118 -115 115 118 c107 109 120 122 120 114z m-240 -240 c0 -1 -53 -54 -117 -117 l-118 -115 115 118 c107 109 120 122 120 114z m-240 -240 c0 -1 -53 -54 -117 -117 l-118 -115 115 118 c107 109 120 122 120 114z m-240 -240 c0 -1 -53 -54 -117 -117 l-118 -115 115 118 c107 109 120 122 120 114z m-240 -240 c0 -1 -48 -50 -107 -107 l-108 -105 105 108 c97 99 110 112 110 104z m-220 -220 c0 -1 -26 -27 -57 -57 l-58 -55 55 58 c50 53 60 62 60 54z m-240 -240 c0 -1 -26 -27 -57 -57 l-58 -55 55 58 c50 53 60 62 60 54z m-120 -120 c0 -1 -26 -27 -57 -57 l-58 -55 55 58 c50 53 60 62 60 54z"></path><path id="p1Dw9E9bNt" d="M9637 7883 c-12 -12 -8 -73 6 -73 12 0 37 44 37 67 0 13 -32 18 -43 6z"></path><path id="pvyF6JELx" d="M9497 7483 c-12 -12 -8 -73 6 -73 12 0 37 44 37 67 0 13 -32 18 -43 6z"></path><path id="pMMZxEebk" d="M5000 7410 c0 -5 -7 -10 -15 -10 -8 0 -15 -7 -15 -15 0 -10 10 -15 29 -15 16 0 31 -5 33 -11 2 -6 21 -9 42 -7 l38 3 -22 25 c-17 20 -23 22 -30 10 -7 -12 -12 -11 -28 8 -21 24 -32 28 -32 12z"></path><path id="pCrdP8BVs" d="M4323 7054 c-13 -14 -23 -31 -23 -39 0 -7 -6 -16 -12 -18 -7 -3 2 -6 20 -6 41 -1 62 18 62 58 0 37 -16 39 -47 5z"></path><path id="pDzxKO34b" d="M4152 6879 c-13 -11 -32 -21 -44 -22 -22 -2 -68 -40 -68 -57 0 -6 16 -10 35 -10 19 0 35 5 35 10 0 6 9 10 20 10 13 0 20 7 20 20 0 15 7 20 25 20 20 0 25 5 25 25 0 30 -19 32 -48 4z"></path><path id="p11qn3bp8u" d="M3829 6617 c13 -16 5 -28 -15 -20 -8 3 -14 0 -14 -6 0 -6 6 -11 14 -11 9 0 12 -7 9 -20 -3 -11 0 -20 6 -20 6 0 11 12 11 27 l0 27 33 -31 c32 -31 77 -59 77 -48 0 13 -50 55 -65 55 -10 0 -15 10 -15 30 0 26 -4 30 -26 30 -21 0 -24 -3 -15 -13z"></path><path id="p1FQHiYalj" d="M3860 6535 c0 -11 51 -57 57 -52 3 3 -6 17 -20 31 -25 25 -37 32 -37 21z"></path><path id="pDqmYeon0" d="M4300 6492 c0 -4 9 -8 20 -9 11 -1 20 2 20 8 0 5 -9 9 -20 9 -11 0 -20 -4 -20 -8z"></path><path id="phfzp1sL4" d="M4200 6450 c0 -5 9 -10 20 -10 11 0 20 5 20 10 0 6 -9 10 -20 10 -11 0 -20 -4 -20 -10z"></path><path id="p16vCotmlw" d="M5175 5919 c-4 -6 -13 -8 -21 -5 -11 4 -11 0 -2 -19 16 -35 38 -32 38 5 0 32 -4 37 -15 19z"></path><path id="pU0zY6FjD" d="M4909 5702 c19 -27 19 -30 3 -45 -15 -16 -15 -17 3 -17 15 0 21 8 22 32 3 34 -11 58 -34 58 -11 0 -10 -6 6 -28z"></path><path id="phYsjS9Y3" d="M4997 5603 c-4 -3 -7 -19 -7 -35 0 -25 3 -28 33 -28 31 0 33 3 35 35 2 32 1 35 -26 35 -16 0 -32 -3 -35 -7z"></path><path id="psYIsheb8" d="M2220 4475 c0 -24 3 -25 53 -24 28 0 46 3 40 6 -7 2 -13 13 -13 24 0 21 -16 26 -23 7 -4 -10 -7 -10 -18 0 -21 20 -39 14 -39 -13z"></path><path id="p1HH8xWHD0" d="M2350 4419 c0 -15 7 -19 35 -19 19 0 35 5 35 10 0 6 -7 10 -15 10 -8 0 -15 4 -15 8 0 4 -9 8 -20 9 -14 1 -20 -4 -20 -18z"></path><path id="prZtZEvC2" d="M4492 3787 l-84 -84 49 -42 c51 -46 129 -101 141 -101 14 0 172 162 172 176 0 8 -8 17 -17 20 -55 18 -80 31 -111 58 l-33 29 -87 -84 -87 -84 84 86 c72 75 92 109 63 109 -4 0 -45 -38 -90 -83z m138 -150 c0 -2 -15 -16 -32 -33 l-33 -29 29 33 c28 30 36 37 36 29z"></path><path id="p18qfefrd7" d="M1240 3578 c0 -24 25 -68 38 -68 9 0 12 12 10 38 -2 30 -7 38 -25 40 -14 2 -23 -2 -23 -10z"></path><path id="p9ulEVmKo" d="M4170 3465 c-75 -75 -92 -97 -82 -107 10 -10 32 7 107 82 89 89 103 109 79 117 -5 2 -52 -40 -104 -92z"></path><path id="pi9DMFzzR" d="M4202 3437 c-50 -51 -92 -96 -92 -101 0 -5 12 -23 28 -41 15 -19 34 -44 44 -57 l16 -23 39 35 c33 30 32 28 -7 -13 -43 -46 -43 -47 -19 -47 20 0 52 26 130 105 57 58 105 109 107 113 1 4 -10 15 -26 24 -15 9 -48 35 -74 57 -25 23 -48 41 -50 41 -2 0 -45 -42 -96 -93z m218 -10 c0 -1 -28 -29 -62 -62 l-63 -60 60 63 c55 58 65 67 65 59z"></path><path id="pY01NNpsC" d="M380 2338 c0 -19 2 -20 10 -8 13 19 13 30 0 30 -5 0 -10 -10 -10 -22z"></path><path id="p18uSOB20P" d="M380 2106 c0 -13 -6 -27 -12 -29 -19 -8 12 -28 37 -25 15 2 21 12 23 41 3 34 1 37 -22 37 -21 0 -26 -5 -26 -24z"></path><path id="pjDPhd1br" d="M418 1938 c5 -34 17 -48 40 -48 9 0 12 12 10 38 -3 31 -7 37 -29 40 -24 3 -25 1 -21 -30z"></path><path id="pXPCeYfyo" d="M573 1645 c7 -14 15 -25 20 -25 4 0 7 -7 7 -15 0 -8 7 -15 15 -15 11 0 15 11 15 40 0 39 -1 40 -34 40 -33 0 -34 -1 -23 -25z"></path><path id="p5nb7hde9" d="M720 1437 c0 -7 9 -19 20 -27 11 -8 20 -20 20 -27 0 -7 7 -13 15 -13 11 0 15 11 15 40 0 39 -1 40 -35 40 -22 0 -35 -5 -35 -13z"></path><path id="pxuyo6Fv1" d="M810 1326 c0 -3 11 -16 25 -30 14 -14 25 -30 25 -36 0 -12 50 -59 63 -60 4 0 7 14 7 31 0 22 -5 32 -19 36 -12 3 -21 15 -23 32 -3 22 -8 26 -40 29 -21 2 -38 1 -38 -2z"></path><path id="ptJjJ4mOq" d="M1250 875 c0 -8 7 -15 15 -15 8 0 15 -8 15 -19 0 -12 9 -20 25 -23 23 -5 25 -2 25 33 0 39 0 39 -40 39 -29 0 -40 -4 -40 -15z"></path><path id="pHu3OeqKZ" d="M1500 672 c0 -5 12 -15 28 -23 15 -8 36 -22 46 -31 28 -25 36 -22 36 12 0 24 -6 33 -26 40 -31 12 -84 13 -84 2z"></path><path id="p6jBVZx7O" d="M1840 474 c0 -12 34 -33 53 -34 10 0 17 7 17 20 0 16 -7 20 -35 20 -19 0 -35 -3 -35 -6z"></path></g></g><g id="l2ShpCLN8eL9UWrJKFn0fto" fill="rgb(218,183,51)" style="transform: none;"><g style="transform: none;"><path id="p128IkEKi3" d="M10131 10511 c-8 -5 5 -7 35 -4 27 3 51 7 53 9 9 8 -75 3 -88 -5z"></path><path id="p1FmY6sBnW" d="M9820 10410 c0 -12 8 -12 35 0 18 8 17 9 -7 9 -16 1 -28 -3 -28 -9z"></path><path id="p1Gvr4GR5q" d="M10479 10303 c6 -10 13 -35 16 -55 7 -43 25 -52 25 -13 0 14 -4 25 -10 25 -5 0 -10 14 -10 30 0 20 -5 30 -15 30 -11 0 -13 -4 -6 -17z"></path><path id="p1GK2xEsru" d="M9402 10268 c2 -6 10 -14 16 -16 7 -2 10 2 6 12 -7 18 -28 22 -22 4z"></path><path id="ptFzpwhVF" d="M9185 10170 c-7 -12 2 -12 30 0 19 8 19 9 -2 9 -12 1 -25 -3 -28 -9z"></path><path id="pRBT5gMdr" d="M8913 10083 c-7 -2 -13 -18 -13 -34 0 -26 3 -29 35 -29 24 0 35 5 35 15 0 8 -6 15 -12 15 -7 0 -20 5 -28 10 -13 9 -13 11 0 20 16 10 4 12 -17 3z"></path><path id="pLOyM95On" d="M9040 10020 c0 -16 7 -20 35 -20 40 0 49 24 13 34 -38 10 -48 7 -48 -14z"></path><path id="pxYvnoNO6" d="M9120 10000 c0 -16 7 -20 35 -20 40 0 49 24 13 34 -38 10 -48 7 -48 -14z"></path><path id="pVXF2sC4J" d="M9220 9970 c0 -16 7 -20 35 -20 39 0 46 14 16 30 -31 16 -51 12 -51 -10z"></path><path id="pTos5s2VZ" d="M9440 9875 c0 -22 4 -25 35 -25 43 0 44 10 6 33 -38 22 -41 22 -41 -8z"></path><path id="pUHRjWyZm" d="M10215 9358 c-15 -36 -13 -43 8 -35 16 6 29 67 15 67 -5 0 -15 -15 -23 -32z"></path><path id="pUiKM9GlN" d="M10155 9198 c-15 -36 -13 -43 8 -35 16 6 29 67 15 67 -5 0 -15 -15 -23 -32z"></path><path id="p1DrxUrZ23" d="M9970 9165 c0 -28 4 -35 20 -35 21 0 24 10 14 48 -10 36 -34 27 -34 -13z"></path><path id="ppKVHYCJI" d="M10010 8955 c0 -33 2 -35 35 -35 33 0 35 2 34 33 l-1 32 -13 -29 -13 -30 -7 32 c-9 44 -35 42 -35 -3z"></path><path id="pH6qJWryj" d="M8950 8015 c0 -8 7 -15 15 -15 18 0 19 -12 3 -28 -9 -9 -5 -12 20 -12 30 0 32 2 32 35 0 33 -2 35 -35 35 -24 0 -35 -5 -35 -15z"></path><path id="p20UIQr15" d="M5060 7360 c0 -16 7 -20 30 -20 34 0 37 5 16 26 -21 21 -46 17 -46 -6z"></path><path id="pFWcdlOH4" d="M2330 4427 c0 -19 11 -28 53 -45 55 -23 107 -29 107 -12 0 11 -37 31 -109 60 l-51 20 0 -23z"></path><path id="pfJ1xtgMa" d="M2660 4265 c0 -20 5 -25 25 -25 15 0 25 -6 25 -14 0 -17 22 -26 61 -26 42 0 36 13 -23 46 -84 46 -88 47 -88 19z"></path><path id="pVBEveGjS" d="M2810 4175 c0 -18 7 -26 25 -31 14 -3 25 -10 25 -15 0 -5 16 -9 35 -9 19 0 35 4 35 8 0 8 -100 72 -113 72 -4 0 -7 -11 -7 -25z"></path><path id="pgpXsFVoz" d="M5180 4187 c-19 -14 -14 -47 6 -47 9 0 14 11 14 30 0 34 0 34 -20 17z"></path><path id="pKNzeUP5c" d="M5157 4024 c-10 -31 -31 -76 -48 -100 l-30 -44 31 0 c20 0 30 5 30 15 0 8 5 15 10 15 6 0 10 9 10 20 0 11 4 20 10 20 11 0 30 64 30 103 0 47 -25 30 -43 -29z"></path><path id="pTpuPD3W0" d="M3190 3922 c0 -22 9 -36 34 -56 19 -14 44 -26 55 -26 14 0 21 -6 21 -18 0 -30 93 -102 131 -102 28 0 30 2 18 16 -15 18 -164 144 -221 188 l-38 28 0 -30z"></path><path id="p82vMhVRv" d="M5000 3814 c-43 -31 -84 -49 -132 -58 -50 -9 -52 -36 -3 -36 19 0 35 5 35 10 0 6 16 10 35 10 19 0 35 5 35 10 0 6 9 10 20 10 11 0 20 5 20 10 0 6 7 10 15 10 10 0 15 10 15 30 0 17 -1 30 -2 30 -2 -1 -19 -12 -38 -26z"></path><path id="p5Gb1UZdi" d="M3480 3673 c0 -23 18 -46 84 -111 51 -50 92 -82 105 -82 16 0 21 -6 21 -28 0 -29 44 -82 68 -82 7 0 12 -8 12 -18 0 -25 19 -42 47 -42 19 0 23 -5 23 -28 0 -18 12 -42 35 -66 19 -21 35 -42 35 -47 0 -5 14 -9 31 -9 l31 0 -38 52 c-75 105 -369 429 -425 469 l-29 20 0 -28z"></path><path id="pUjVR8vgC" d="M4581 3586 c-10 -12 -8 -17 8 -25 28 -15 31 -14 31 14 0 28 -21 33 -39 11z"></path><path id="p1HKPghMjN" d="M4730 3510 c0 -5 13 -16 29 -25 16 -8 38 -26 49 -40 26 -33 32 -32 32 9 0 25 -7 39 -22 50 -25 18 -88 22 -88 6z"></path><path id="pEFmLw4k5" d="M4450 3386 c0 -19 10 -28 49 -45 100 -43 231 -64 231 -37 0 9 -25 20 -73 30 -40 9 -101 30 -136 46 -34 17 -65 30 -67 30 -2 0 -4 -11 -4 -24z"></path><path id="pzJGog4vR" d="M4137 3141 l-87 -88 -20 32 c-11 18 -27 38 -35 45 -13 11 -15 7 -15 -24 0 -32 3 -36 25 -36 21 0 25 -5 25 -32 0 -18 9 -44 21 -58 29 -37 147 -218 191 -293 10 -18 59 -114 109 -214 90 -179 92 -183 123 -183 21 0 27 3 17 9 -10 7 7 30 73 95 47 47 86 94 86 104 0 25 -135 297 -209 421 -81 136 -199 311 -209 311 -5 0 -47 -40 -95 -89z"></path></g></g><g id="l25It3ieVOoMTjbeEd9o4Qt" fill="rgb(255,193,7)" style="transform: none;"><g style="transform: none;"><path id="pF6sI6WK4" d="M7315 9443 c-47 -7 -63 -43 -19 -43 45 0 114 22 114 36 0 14 -30 16 -95 7z"></path><path id="pQ4s2dBnL" d="M7550 9436 c0 -8 19 -18 44 -25 62 -15 76 -14 76 8 0 14 -10 20 -37 25 -59 9 -83 7 -83 -8z"></path><path id="pXg28q0Ji" d="M7700 9401 c0 -6 27 -24 61 -42 75 -40 154 -125 190 -204 14 -33 37 -102 49 -152 15 -62 27 -93 36 -93 19 0 18 34 -5 132 -25 103 -59 188 -77 188 -8 0 -14 9 -14 20 0 23 -66 100 -86 100 -8 0 -14 5 -14 10 0 6 -7 10 -15 10 -8 0 -15 4 -15 8 0 13 -48 32 -80 32 -17 0 -30 -4 -30 -9z"></path><path id="p14BSSe4bM" d="M8106 8915 c-4 -10 1 -15 14 -15 11 0 20 -3 20 -8 0 -4 -672 -679 -1494 -1501 l-1494 -1494 42 -86 c52 -105 60 -141 41 -187 -8 -19 -15 -34 -17 -34 -2 0 -4 18 -6 41 -4 57 -41 144 -114 267 -71 120 -103 203 -113 287 -10 97 -15 115 -32 115 -14 0 -15 -11 -10 -72 7 -93 35 -214 53 -232 8 -8 14 -22 14 -30 0 -9 7 -16 15 -16 9 0 15 -9 15 -24 0 -14 7 -31 15 -40 8 -8 15 -19 15 -25 0 -5 6 -16 13 -23 17 -18 83 -165 92 -205 6 -28 3 -34 -18 -44 -48 -22 -187 53 -187 100 0 9 -13 31 -29 49 -16 17 -32 41 -36 52 -3 11 -12 26 -18 32 -14 15 -75 145 -107 227 -12 30 -37 113 -56 185 -43 158 -83 276 -95 276 -5 0 -9 9 -9 20 0 11 -4 20 -10 20 -5 0 -10 9 -10 19 0 11 -6 26 -13 33 -6 8 -17 23 -23 33 -19 35 -64 50 -148 50 -55 0 -81 -4 -84 -12 -2 -7 -12 -13 -23 -13 -10 0 -19 -4 -19 -10 0 -5 -9 -10 -20 -10 -11 0 -20 -4 -20 -10 0 -5 -9 -10 -19 -10 -11 0 -21 -4 -23 -8 -1 -4 -34 -21 -73 -38 -82 -34 -181 -39 -197 -10 -5 9 -16 16 -23 16 -8 0 -15 6 -15 13 -1 21 -37 57 -59 57 -34 0 -25 -26 27 -79 47 -49 95 -71 154 -71 40 0 156 42 223 81 108 63 133 72 192 67 66 -6 97 -32 141 -121 41 -81 65 -151 113 -325 47 -173 83 -267 152 -391 57 -104 138 -199 206 -243 25 -15 41 -28 35 -28 -18 0 -80 43 -121 84 l-41 42 -210 -208 -209 -209 44 -54 c84 -101 252 -229 398 -303 90 -45 230 -90 335 -106 51 -9 99 -21 107 -27 41 -35 38 -91 -6 -113 -81 -42 -329 -45 -470 -6 -210 59 -398 191 -519 363 l-55 79 -131 -131 -131 -131 3 -75 c3 -67 0 -83 -27 -140 -39 -84 -112 -157 -196 -197 -59 -27 -74 -30 -140 -26 l-75 3 -106 -106 -106 -106 70 -26 c64 -23 126 -38 223 -52 66 -10 106 -73 78 -124 -22 -39 -56 -51 -148 -51 l-84 0 184 -188 c102 -103 220 -231 264 -285 43 -53 81 -97 85 -97 3 0 48 43 99 94 l95 95 -42 60 c-47 66 -81 136 -82 164 0 31 54 77 91 77 26 0 40 -9 68 -41 20 -23 52 -59 71 -81 l35 -39 83 84 83 83 -27 58 c-22 49 -26 67 -22 129 5 92 35 155 108 228 112 112 245 144 361 86 l54 -27 1913 1915 c1052 1053 1916 1915 1921 1915 6 0 6 -13 0 -32 -17 -60 -12 -94 16 -106 39 -18 65 -15 65 7 0 12 -9 21 -26 25 -24 6 -26 10 -20 49 7 52 -9 287 -25 353 -23 100 -87 215 -158 284 -125 123 -285 180 -542 194 -89 5 -108 3 -113 -9z"></path><path id="p1Nqrrz3T" d="M5130 7325 c0 -24 5 -35 15 -35 8 0 15 -4 15 -10 0 -5 17 -10 38 -10 l37 1 -30 25 c-16 14 -40 35 -52 45 l-23 19 0 -35z"></path><path id="pvXCQzBt" d="M5270 7196 c0 -20 5 -36 10 -36 6 0 10 -7 10 -15 0 -8 5 -15 10 -15 6 0 10 -7 10 -15 0 -8 5 -15 10 -15 6 0 10 -7 10 -15 0 -9 10 -15 26 -15 32 0 29 8 -26 90 -51 75 -60 80 -60 36z"></path><path id="ptJVQ9lEu" d="M4389 7133 c-8 -16 -18 -31 -24 -35 -5 -4 7 -8 28 -8 36 0 37 1 37 35 0 43 -21 47 -41 8z"></path><path id="pwIn4Y22y" d="M5380 7030 c0 -30 28 -100 41 -100 3 0 9 -13 12 -29 3 -16 12 -35 19 -42 7 -8 22 -46 32 -86 18 -71 16 -105 -9 -129 -10 -10 -15 -4 -24 27 -10 32 -16 39 -36 39 -14 0 -25 5 -25 10 0 6 -16 10 -35 10 l-35 0 0 -49 c0 -31 6 -55 15 -65 8 -8 15 -24 15 -35 0 -14 6 -21 20 -21 25 0 25 16 0 75 -21 49 -19 65 6 65 16 0 53 -72 54 -102 0 -23 14 -23 51 -1 29 17 59 67 59 98 0 65 -123 365 -150 365 -6 0 -10 -13 -10 -30z"></path><path id="pgt6HN03U" d="M4200 6910 c0 -5 -7 -10 -15 -10 -8 0 -15 -4 -15 -10 0 -5 -7 -10 -15 -10 -8 0 -15 -7 -15 -15 0 -10 11 -15 35 -15 33 0 35 2 35 35 0 19 -2 35 -5 35 -3 0 -5 -4 -5 -10z"></path><path id="pHQy2Nlx8" d="M5225 6518 c13 -24 26 -58 30 -75 5 -28 11 -33 34 -33 47 0 101 65 101 121 0 33 -37 24 -43 -11 -6 -26 -38 -70 -52 -70 -3 0 -5 7 -5 15 0 8 -4 15 -10 15 -5 0 -10 11 -10 24 0 41 -11 56 -40 56 l-29 0 24 -42z"></path><path id="pCT2E5s4C" d="M5140 6520 c0 -16 9 -48 21 -70 26 -50 20 -77 -27 -130 -59 -65 -68 -56 -77 67 -3 34 -8 66 -12 72 -3 6 -24 11 -46 11 -33 0 -41 -4 -49 -26 -6 -14 -10 -43 -10 -65 0 -55 26 -53 37 4 6 26 14 42 23 42 11 0 17 -20 23 -80 9 -84 27 -115 68 -115 30 0 106 80 118 125 16 57 14 68 -16 135 -30 65 -53 78 -53 30z"></path><path id="p14BHgHxlG" d="M5112 3925 l-22 -35 30 0 c28 0 30 3 30 35 0 44 -9 44 -38 0z"></path><path id="pq4ae4Vn8" d="M4732 3740 c-11 -19 -10 -20 23 -20 24 0 35 5 35 15 0 8 -4 15 -9 15 -5 0 -15 2 -23 5 -7 3 -19 -4 -26 -15z"></path><path id="pTkyuhDvz" d="M4652 3538 c3 -7 19 -18 36 -25 31 -13 32 -12 32 12 0 22 -4 25 -36 25 -23 0 -34 -4 -32 -12z"></path><path id="pn4fd2Nzb" d="M4405 3410 c-18 -20 -17 -20 18 -20 40 0 48 13 18 29 -14 8 -23 6 -36 -9z"></path><path id="po1m3YiZd" d="M4440 2338 c0 -31 4 -38 20 -38 25 0 25 2 0 42 l-20 33 0 -37z"></path><path id="pqwafMtbJ" d="M4500 2352 c0 -7 -7 -12 -16 -12 -8 0 -12 -4 -9 -10 3 -5 10 -10 15 -10 10 0 22 31 15 38 -3 3 -5 0 -5 -6z"></path></g></g><g id="lV83AqGX4RK4HArUXir0j5" fill="rgb(255,131,131)" style="transform: none;"><g style="transform: none;"><path id="pvEc4KHvO" d="M10300 10485 c14 -8 32 -14 40 -15 8 0 2 7 -14 15 -36 19 -59 19 -26 0z"></path><path id="pPCG2JAdA" d="M9820 10410 c0 -13 11 -13 30 0 12 8 11 10 -7 10 -13 0 -23 -4 -23 -10z"></path><path id="pNI161m3K" d="M8910 10080 c-8 -11 -22 -20 -32 -20 -10 0 -18 -4 -18 -10 0 -5 -7 -10 -15 -10 -8 0 -15 -7 -15 -15 0 -17 65 -22 75 -5 3 6 15 10 26 10 24 0 24 9 2 27 -13 10 -15 16 -5 19 6 3 12 10 12 15 0 15 -15 10 -30 -11z"></path><path id="p16lQ8h1UH" d="M8700 9990 c0 -5 -7 -10 -15 -10 -8 0 -15 -7 -15 -15 0 -11 11 -15 40 -15 36 0 40 3 40 25 0 20 -5 25 -25 25 -14 0 -25 -4 -25 -10z"></path><path id="pxf6nHybf" d="M10422 9917 c-15 -43 -15 -47 3 -47 8 0 15 7 15 15 0 8 5 15 10 15 6 0 10 11 10 25 0 36 -24 31 -38 -8z"></path><path id="p1AhDC2HtB" d="M8540 9930 c0 -5 -7 -10 -15 -10 -8 0 -15 -7 -15 -15 0 -11 11 -15 40 -15 36 0 40 3 40 25 0 20 -5 25 -25 25 -14 0 -25 -4 -25 -10z"></path><path id="pIKUVya9W" d="M8230 9810 c0 -5 -7 -10 -15 -10 -8 0 -15 -4 -15 -10 0 -5 16 -10 35 -10 28 0 35 4 35 20 0 13 -7 20 -20 20 -11 0 -20 -4 -20 -10z"></path><path id="phGN6BlXM" d="M10366 9766 c-3 -13 -9 -31 -12 -40 -4 -11 -1 -16 10 -16 9 0 16 7 16 15 0 8 5 15 10 15 6 0 10 11 10 25 0 32 -26 33 -34 1z"></path><path id="pPkBkicTB" d="M8000 9730 c0 -5 -7 -10 -15 -10 -8 0 -15 -7 -15 -15 0 -11 11 -15 40 -15 36 0 40 3 40 25 0 20 -5 25 -25 25 -14 0 -25 -4 -25 -10z"></path><path id="paARMZA4G" d="M7840 9670 c0 -5 -7 -10 -15 -10 -8 0 -15 -7 -15 -15 0 -11 11 -15 40 -15 36 0 40 3 40 25 0 20 -5 25 -25 25 -14 0 -25 -4 -25 -10z"></path><path id="p1G5kkof0b" d="M10270 9504 c-6 -14 -10 -30 -10 -35 0 -28 39 15 40 44 0 26 -19 21 -30 -9z"></path><path id="pR3jFncTS" d="M7240 9434 c0 -10 28 -34 39 -34 6 0 11 10 11 23 0 18 -2 19 -11 7 -8 -11 -12 -12 -16 -2 -5 12 -23 17 -23 6z"></path><path id="p1EbmvVIzx" d="M10150 9180 c-7 -17 -10 -34 -6 -37 9 -9 35 28 36 50 0 27 -16 20 -30 -13z"></path><path id="pjCoX4p1K" d="M10020 8855 c0 -39 6 -43 26 -17 20 26 17 52 -6 52 -16 0 -20 -7 -20 -35z"></path><path id="pPNrdeG3r" d="M9960 8695 c0 -39 6 -43 26 -17 20 26 17 52 -6 52 -16 0 -20 -7 -20 -35z"></path><path id="p1BhBbj4gA" d="M9890 8530 c0 -29 4 -40 15 -40 8 0 15 7 15 15 0 8 5 15 10 15 6 0 10 11 10 25 0 20 -5 25 -25 25 -22 0 -25 -4 -25 -40z"></path><path id="pCR8OVSBA" d="M9837 8403 c-4 -3 -7 -21 -7 -40 0 -23 5 -33 15 -33 8 0 15 7 15 15 0 8 5 15 10 15 6 0 10 11 10 25 0 18 -5 25 -18 25 -10 0 -22 -3 -25 -7z"></path><path id="pj41TGS6v" d="M9730 8110 c0 -29 4 -40 15 -40 8 0 15 7 15 15 0 8 5 15 10 15 6 0 10 11 10 25 0 20 -5 25 -25 25 -22 0 -25 -4 -25 -40z"></path><path id="pjLV2v3Ku" d="M9670 7950 c0 -29 4 -40 15 -40 8 0 15 7 15 15 0 8 5 15 10 15 6 0 10 11 10 25 0 20 -5 25 -25 25 -22 0 -25 -4 -25 -40z"></path><path id="p1CMlAIxtD" d="M4780 7413 c0 -12 -51 -33 -77 -33 -13 0 -23 -4 -23 -10 0 -5 -7 -10 -16 -10 -9 0 -25 -10 -36 -22 l-20 -23 33 -3 c22 -2 37 2 45 12 6 9 19 16 28 16 9 0 16 4 16 9 0 5 23 11 50 15 34 5 50 11 50 21 0 8 -7 15 -15 15 -8 0 -15 5 -15 10 0 6 -4 10 -10 10 -5 0 -10 -3 -10 -7z"></path><path id="pLkFLosDv" d="M4980 7390 c0 -5 14 -10 30 -10 17 0 30 -4 30 -10 0 -5 14 -10 31 -10 17 0 28 4 24 10 -3 6 -17 10 -31 10 -13 0 -24 5 -24 10 0 6 -13 10 -30 10 -16 0 -30 -4 -30 -10z"></path><path id="ppdfs8YL4" d="M9434 7356 c-3 -8 -4 -26 -2 -41 l3 -27 23 20 c12 11 22 26 22 35 0 8 6 18 13 20 6 3 -3 6 -21 6 -19 1 -35 -5 -38 -13z"></path><path id="pJe9BWwhF" d="M4560 7292 c0 -4 -13 -13 -30 -20 -40 -18 -38 -32 5 -32 32 0 35 2 35 30 0 17 -2 30 -5 30 -3 0 -5 -3 -5 -8z"></path><path id="pg8MQhUxD" d="M4460 7210 c0 -5 -9 -10 -20 -10 -13 0 -20 -7 -20 -20 0 -11 -4 -20 -8 -20 -5 0 -15 -12 -23 -27 -8 -16 -24 -38 -37 -51 -12 -13 -20 -28 -16 -33 3 -5 2 -9 -3 -8 -22 4 -33 -3 -33 -20 0 -11 -6 -22 -12 -24 -7 -3 1 -6 18 -6 39 -1 64 25 64 67 0 27 4 32 25 32 21 0 25 5 25 30 0 25 4 30 25 30 22 0 25 4 25 35 0 19 -2 35 -5 35 -3 0 -5 -4 -5 -10z"></path><path id="p1AnNE445n" d="M4200 6910 c0 -5 -7 -10 -16 -10 -8 0 -12 -4 -9 -10 3 -5 -3 -10 -14 -10 -12 0 -21 -4 -21 -10 0 -5 -7 -10 -16 -10 -9 0 -12 -5 -8 -12 5 -8 1 -8 -10 1 -15 13 -19 13 -26 1 -5 -8 -6 -18 -4 -22 3 -5 2 -8 -3 -7 -24 4 -43 -3 -43 -16 0 -20 48 -20 88 1 19 9 32 23 32 35 0 14 7 19 30 19 27 0 30 3 30 30 0 17 -2 30 -5 30 -3 0 -5 -4 -5 -10z"></path><path id="pX3goiiaM" d="M3953 6785 c-19 -21 -16 -25 22 -25 28 0 35 4 35 20 0 24 -38 27 -57 5z"></path><path id="p2pim8ll2" d="M3921 6775 c0 -6 -14 -16 -30 -23 -45 -20 -48 -42 -5 -42 37 0 48 14 41 52 -2 13 -5 18 -6 13z"></path><path id="pNgKvC4xU" d="M3842 6605 c27 -31 29 -31 15 0 -7 14 -18 25 -24 25 -8 0 -4 -10 9 -25z"></path><path id="p3pFn164y" d="M2100 4510 c0 -5 5 -10 10 -10 6 0 10 -4 10 -10 0 -5 -12 -10 -26 -10 -21 0 -64 -31 -64 -47 0 -1 18 -3 40 -3 33 0 40 3 40 20 0 13 7 20 20 20 11 0 20 7 20 15 0 8 -7 15 -15 15 -8 0 -15 5 -15 10 0 6 -4 10 -10 10 -5 0 -10 -4 -10 -10z"></path><path id="pvdVH1fFJ" d="M2210 4480 c0 -17 7 -20 45 -20 25 0 45 5 45 10 0 6 -11 10 -25 10 -14 0 -25 5 -25 10 0 6 -9 10 -20 10 -13 0 -20 -7 -20 -20z"></path><path id="p13OsIJdq3" d="M1310 3477 c0 -7 20 -20 45 -29 l45 -17 0 23 c0 26 -17 36 -61 36 -17 0 -29 -5 -29 -13z"></path><path id="pejh1RFKs" d="M1450 3411 c0 -4 28 -23 63 -41 93 -50 300 -175 402 -244 475 -319 832 -673 1187 -1176 136 -193 296 -451 343 -553 31 -68 56 -97 84 -97 16 0 21 6 21 25 0 21 -5 25 -30 25 -25 0 -30 4 -30 25 0 23 -18 74 -30 85 -3 3 -14 24 -24 48 -11 23 -22 42 -26 42 -5 0 -11 11 -14 25 -4 14 -11 25 -16 25 -6 0 -10 6 -10 14 0 8 -6 21 -14 28 -7 8 -17 24 -20 36 -4 12 -12 22 -17 22 -5 0 -9 7 -9 15 0 8 -4 15 -10 15 -5 0 -10 7 -10 15 0 8 -4 15 -9 15 -5 0 -12 11 -15 25 -4 14 -11 25 -16 25 -6 0 -10 7 -10 15 0 9 -9 15 -25 15 -22 0 -25 4 -25 35 0 22 -8 43 -20 55 -11 11 -20 25 -20 30 0 6 -4 10 -10 10 -5 0 -10 6 -10 14 0 7 -11 24 -24 38 -12 14 -26 33 -29 42 -4 9 -11 16 -17 16 -5 0 -10 7 -10 15 0 8 -4 15 -10 15 -5 0 -10 6 -10 14 0 8 -8 21 -18 28 -10 7 -21 21 -25 31 -3 9 -13 17 -22 17 -9 0 -15 9 -15 21 0 12 -8 23 -20 26 -11 3 -20 14 -20 25 0 11 -8 22 -19 25 -11 3 -21 15 -23 27 -2 11 -13 25 -25 31 -13 5 -23 17 -23 26 0 22 -42 59 -68 59 -17 0 -22 6 -22 28 0 21 -12 40 -45 70 -25 23 -52 42 -60 42 -9 0 -15 10 -15 25 0 21 -5 25 -30 25 -25 0 -30 4 -30 25 0 20 -5 25 -25 25 -20 0 -25 5 -25 23 0 31 -39 67 -73 67 -22 0 -27 5 -27 23 0 26 -28 57 -52 57 -9 0 -18 9 -21 21 -3 11 -15 23 -26 26 -11 3 -22 11 -25 19 -3 8 -14 14 -25 14 -10 0 -21 9 -24 20 -3 12 -14 20 -26 20 -12 0 -21 6 -21 15 0 8 -6 15 -14 15 -8 0 -16 7 -20 15 -3 8 -15 15 -26 15 -11 0 -20 7 -20 15 0 8 -6 15 -14 15 -8 0 -16 7 -20 15 -3 8 -10 15 -16 15 -6 0 -20 9 -32 20 -12 11 -28 20 -35 20 -7 0 -13 5 -13 10 0 6 -7 10 -15 10 -8 0 -15 5 -15 10 0 6 -7 10 -15 10 -8 0 -15 5 -15 10 0 6 -7 10 -15 10 -8 0 -15 5 -15 10 0 6 -7 10 -15 10 -8 0 -15 4 -15 8 0 5 -17 17 -37 28 -21 10 -43 24 -49 29 -6 6 -28 19 -50 30 -21 11 -41 23 -44 26 -11 13 -50 29 -69 29 -12 0 -21 6 -21 13 0 7 -16 21 -35 30 -38 18 -95 23 -95 8z"></path><path id="pbQce9Cxg" d="M1095 3266 c-38 -40 -162 -167 -275 -282 -113 -115 -156 -162 -96 -104 169 163 456 449 456 455 0 14 -21 -3 -85 -69z"></path><path id="p7XjbImfu" d="M556 2724 c-11 -7 -17 -17 -13 -20 3 -4 14 1 23 10 21 22 15 28 -10 10z"></path><path id="pa5mKDneQ" d="M387 2353 c-10 -9 -9 -53 1 -53 5 0 9 14 9 30 0 33 -1 33 -10 23z"></path><path id="peLNS188D" d="M490 2251 c-42 -13 -69 -34 -81 -63 -7 -17 -19 -28 -30 -28 -11 0 -19 -4 -19 -10 0 -5 5 -10 10 -10 6 0 10 -9 10 -20 0 -11 5 -20 10 -20 6 0 10 -4 10 -10 0 -5 -9 -10 -20 -10 -26 0 -26 -12 0 -30 12 -9 20 -26 20 -43 0 -16 9 -42 20 -57 15 -21 17 -30 8 -34 -10 -5 -10 -7 0 -12 6 -3 12 -14 12 -25 0 -10 5 -19 10 -19 6 0 10 -9 10 -20 0 -11 5 -20 10 -20 6 0 10 -9 10 -20 0 -11 3 -20 8 -20 4 0 15 -18 24 -40 10 -21 33 -56 53 -75 19 -20 35 -44 35 -54 0 -9 9 -27 20 -39 11 -12 20 -26 20 -33 0 -6 13 -24 30 -39 16 -15 30 -34 30 -40 0 -17 40 -51 51 -44 5 3 9 -9 9 -25 0 -21 5 -31 15 -31 9 0 19 -8 22 -17 9 -23 23 -37 46 -46 10 -4 17 -17 17 -32 0 -14 6 -25 13 -25 6 0 28 -19 47 -42 19 -22 41 -47 48 -54 6 -7 12 -20 12 -28 0 -9 8 -16 20 -16 13 0 20 -7 20 -20 0 -12 7 -20 16 -20 9 0 61 -45 116 -100 71 -71 107 -100 124 -100 13 0 24 -4 24 -10 0 -5 -4 -10 -10 -10 -5 0 -10 -4 -10 -10 0 -5 8 -10 18 -10 10 0 24 -9 32 -20 8 -11 22 -20 32 -20 11 0 18 -7 18 -20 0 -13 7 -20 20 -20 11 0 20 -4 20 -8 0 -5 12 -15 28 -23 15 -8 38 -24 50 -37 13 -13 36 -25 52 -28 16 -4 30 -14 33 -25 3 -10 12 -19 21 -19 9 0 16 -4 16 -9 0 -5 8 -11 18 -14 26 -8 75 -40 93 -60 9 -9 24 -17 34 -17 9 0 29 -9 44 -19 15 -11 46 -26 69 -33 23 -7 42 -16 42 -20 0 -5 9 -8 20 -8 11 0 20 -4 20 -10 0 -5 22 -10 49 -10 28 0 53 -5 56 -10 8 -13 52 -13 57 0 2 7 14 6 35 -2 18 -7 36 -8 40 -4 4 5 2 11 -5 13 -18 7 -15 20 6 25 27 7 52 68 52 125 0 145 -128 400 -338 673 -36 47 -73 92 -81 101 -9 8 -40 44 -70 80 -133 158 -400 406 -594 552 -285 216 -556 334 -677 298z"></path><path id="pUoPtEIFq" d="M4470 2201 c0 -27 -5 -51 -11 -53 -6 -2 -9 -21 -7 -42 l3 -38 23 20 c15 13 22 30 22 56 0 20 5 36 10 36 6 0 10 9 10 20 0 11 -4 20 -10 20 -5 0 -10 7 -10 15 0 8 -7 15 -15 15 -11 0 -15 -12 -15 -49z"></path><path id="pFKTsQrWn" d="M2713 565 c-15 -16 -16 -25 -5 -25 4 0 13 9 20 20 14 23 3 26 -15 5z"></path><path id="pTFyIOtw3" d="M2280 390 c0 -5 9 -10 20 -10 11 0 20 5 20 10 0 6 -9 10 -20 10 -11 0 -20 -4 -20 -10z"></path></g></g><g id="l5J3pcfLsCrb4IWr6Yq1JC1" fill="rgb(253,215,54)" style="transform: none;"><g style="transform: none;"><path id="pvgJlRNiq" d="M7610 9426 c0 -13 28 -26 58 -26 6 0 12 9 12 20 0 16 -7 20 -35 20 -23 0 -35 -5 -35 -14z"></path><path id="pXVtwmtzU" d="M7900 9251 c0 -6 11 -23 25 -38 l24 -28 1 38 c0 33 -3 37 -25 37 -14 0 -25 -4 -25 -9z"></path><path id="pFtugJ1Ns" d="M8250 8905 c0 -8 6 -15 13 -16 6 -1 26 -2 42 -4 49 -4 144 -26 201 -45 l54 -19 0 23 c0 25 -20 34 -148 61 -97 20 -162 20 -162 0z"></path><path id="pA29hhg4W" d="M8590 8811 c0 -5 15 -16 33 -25 17 -9 47 -28 65 -42 l32 -27 0 32 c0 28 -3 31 -30 31 -23 0 -30 4 -30 20 0 16 -7 20 -35 20 -19 0 -35 -4 -35 -9z"></path><path id="p1F1NYDTs0" d="M8800 8620 c27 -38 76 -145 85 -187 9 -45 35 -44 35 2 0 19 -4 35 -10 35 -5 0 -10 14 -10 30 0 17 -4 30 -10 30 -5 0 -10 11 -10 25 0 18 -5 25 -20 25 -16 0 -20 7 -20 35 0 32 -2 35 -31 35 l-30 0 21 -30z"></path><path id="pg9oiNlId" d="M8900 8358 c0 -39 12 -68 26 -68 10 0 14 13 14 45 0 38 -3 45 -20 45 -14 0 -20 -7 -20 -22z"></path><path id="pxU5E9DC3" d="M8955 8019 c-4 -6 3 -13 15 -16 19 -5 -253 -281 -1888 -1917 l-1910 -1911 -4 -80 c-6 -102 -34 -159 -117 -238 -76 -73 -134 -99 -231 -105 l-75 -4 -87 -86 -87 -86 27 -18 c15 -10 63 -32 107 -49 44 -16 88 -39 98 -51 44 -51 3 -138 -66 -138 -55 0 -186 38 -244 70 -29 17 -58 30 -65 30 -7 0 -60 -48 -119 -106 l-106 -106 72 -106 c107 -158 189 -299 271 -466 64 -131 71 -150 58 -163 -8 -8 -27 -31 -42 -51 -15 -20 -40 -49 -56 -64 -16 -16 -27 -31 -23 -34 7 -7 4917 4902 4917 4917 0 6 12 23 28 37 27 27 48 69 74 147 8 24 12 89 12 165 0 106 -3 132 -22 172 -42 94 -143 179 -258 218 -130 45 -264 64 -279 39z"></path><path id="p8GdQXyHw" d="M5170 7291 c0 -29 3 -31 36 -31 39 0 38 9 -6 40 l-30 21 0 -30z"></path><path id="puFQts5Or" d="M5260 7206 c0 -20 5 -36 10 -36 6 0 10 -7 10 -15 0 -8 5 -15 10 -15 6 0 10 -7 10 -15 0 -8 5 -15 10 -15 6 0 10 -6 10 -14 0 -8 3 -16 8 -18 4 -1 16 -20 26 -40 14 -28 26 -38 43 -38 12 0 23 4 23 9 0 12 -135 217 -149 225 -7 5 -11 -5 -11 -28z"></path><path id="p1CQkIBlRR" d="M4415 7164 c-14 -14 -23 -29 -20 -34 3 -4 -1 -11 -7 -13 -7 -3 4 -6 25 -6 37 -1 37 -1 37 39 0 22 -2 40 -5 40 -2 0 -16 -12 -30 -26z"></path><path id="po1ZrgfMg" d="M5420 6945 c0 -31 3 -35 26 -35 14 0 24 3 22 8 -35 73 -48 80 -48 27z"></path><path id="pqSOnR7zh" d="M5460 6865 c0 -14 8 -53 18 -85 12 -44 22 -60 35 -60 22 0 21 21 -6 99 -23 69 -47 92 -47 46z"></path><path id="pdMVcTj7T" d="M3945 6782 c-11 -3 -28 -14 -38 -26 -19 -21 -19 -21 18 -24 44 -4 48 -1 43 30 -2 17 -8 22 -23 20z"></path><path id="pFddTcLq0" d="M5360 6715 c0 -8 7 -15 15 -15 8 0 20 -9 27 -20 19 -29 28 -24 28 15 0 33 -2 35 -35 35 -24 0 -35 -5 -35 -15z"></path><path id="pzdREkr7O" d="M4360 6680 c0 -5 -13 -10 -30 -10 -16 0 -30 -4 -30 -10 0 -5 -9 -10 -20 -10 -11 0 -20 -4 -20 -10 0 -5 -7 -10 -15 -10 -9 0 -15 -9 -15 -25 0 -28 2 -27 90 19 41 22 68 30 108 29 44 0 52 3 52 18 0 16 -8 19 -60 19 -33 0 -60 -4 -60 -10z"></path><path id="p19LpXP4Tb" d="M5320 6658 c1 -18 7 -44 15 -58 16 -29 20 -100 5 -100 -5 0 -10 -9 -10 -20 0 -34 -37 -25 -45 10 -4 17 -13 30 -20 30 -8 0 -15 13 -17 33 -3 29 -6 32 -40 35 -29 2 -38 0 -38 -12 0 -9 6 -16 13 -16 22 0 46 -33 66 -91 17 -50 21 -54 47 -52 41 3 81 51 90 108 5 37 2 59 -17 106 -26 65 -49 78 -49 27z"></path><path id="p167hEKpkA" d="M3820 6650 c0 -11 10 -32 23 -47 64 -78 117 -106 117 -63 0 13 -7 20 -19 20 -10 0 -21 9 -24 20 -3 12 -14 20 -26 20 -17 0 -21 6 -21 35 0 31 -3 35 -25 35 -18 0 -25 -5 -25 -20z"></path><path id="p1E2qWLZcH" d="M5430 6611 c0 -27 13 -33 35 -17 21 15 12 36 -16 36 -12 0 -19 -7 -19 -19z"></path><path id="pzxCkkqQQ" d="M4560 6575 c0 -14 32 -65 40 -65 6 0 10 16 10 35 0 31 -3 35 -25 35 -14 0 -25 -2 -25 -5z"></path><path id="p15JZU6YoY" d="M4040 6530 c0 -21 10 -24 48 -14 36 10 27 34 -13 34 -28 0 -35 -4 -35 -20z"></path><path id="pnLU5ReBM" d="M5160 6475 c0 -31 3 -35 26 -35 14 0 24 3 22 8 -35 73 -48 80 -48 27z"></path><path id="p14W2CDkVl" d="M4980 6455 c0 -8 -9 -15 -20 -15 -16 0 -20 -7 -20 -35 0 -45 24 -47 36 -2 13 43 36 41 47 -5 5 -22 15 -38 23 -38 15 0 18 28 8 79 -6 27 -10 31 -40 31 -24 0 -34 -5 -34 -15z"></path><path id="pxmlTnqll" d="M4640 6388 c10 -29 24 -74 31 -100 7 -31 17 -48 27 -48 12 0 14 9 9 52 -4 29 -11 54 -17 56 -5 2 -10 13 -10 25 0 46 -12 67 -36 67 l-24 0 20 -52z"></path><path id="pl2GWk1a4" d="M5170 6355 c0 -39 14 -46 30 -16 16 31 12 51 -10 51 -16 0 -20 -7 -20 -35z"></path><path id="pfWJkbAFx" d="M5030 6301 c0 -33 11 -51 31 -51 20 0 23 10 13 48 -8 28 -44 30 -44 3z"></path><path id="p2PQwfgww" d="M5090 6270 c0 -13 7 -20 18 -20 11 0 27 9 37 20 18 20 17 20 -18 20 -30 0 -37 -4 -37 -20z"></path><path id="p1BFXZ1vYP" d="M4950 6168 c0 -59 13 -98 31 -98 22 0 22 3 8 70 -11 51 -39 72 -39 28z"></path><path id="poqIoH55z" d="M4710 6148 c0 -30 13 -58 26 -58 9 0 14 12 14 35 0 28 -4 35 -20 35 -11 0 -20 -6 -20 -12z"></path><path id="pyHtQxEwj" d="M5000 6005 c0 -19 4 -35 9 -35 5 0 11 -13 15 -30 3 -18 12 -30 21 -30 9 0 15 -9 15 -25 0 -16 6 -25 15 -25 9 0 15 -9 15 -25 0 -20 5 -25 25 -25 14 0 25 3 25 6 0 3 -21 42 -48 87 -26 45 -54 94 -61 110 -19 37 -31 34 -31 -8z"></path><path id="pW2jpPuTg" d="M4763 5988 c19 -46 37 -48 37 -4 0 32 -3 36 -25 36 -24 0 -25 -1 -12 -32z"></path><path id="p17ELktGfS" d="M4830 5845 c0 -11 62 -114 75 -125 13 -11 15 -7 15 24 0 29 -4 36 -20 36 -16 0 -20 7 -20 35 0 31 -3 35 -25 35 -14 0 -25 -2 -25 -5z"></path><path id="p32ALjSqq" d="M5164 5667 c7 -59 6 -67 -13 -76 -11 -6 -31 -11 -45 -11 -36 0 -33 -27 3 -35 17 -4 44 0 65 9 34 14 36 18 35 58 0 53 -19 110 -38 116 -11 4 -12 -8 -7 -61z"></path><path id="pXMGNTaNr" d="M4940 5670 c31 -44 40 -45 40 -6 0 33 -2 36 -31 36 l-30 0 21 -30z"></path><path id="p19xOOoVpO" d="M5013 5595 c36 -32 47 -31 47 0 0 22 -4 25 -37 25 l-38 -1 28 -24z"></path><path id="p16DWqt1dD" d="M4450 2322 c0 -28 3 -32 28 -32 15 0 22 4 16 8 -5 4 -18 18 -27 32 l-17 24 0 -32z"></path></g></g><g id="lBk1XicP8a3EqBm2ddG60J" fill="rgb(149,209,223)" style="transform: none;"><g style="transform: none;"><path id="pkURva6h6" d="M2120 4490 c0 -5 -9 -10 -20 -10 -11 0 -20 -4 -20 -10 0 -5 -7 -10 -15 -10 -8 0 -193 -178 -410 -395 -310 -310 -395 -400 -395 -420 0 -14 -4 -25 -10 -25 -13 0 -13 -57 0 -65 6 -3 10 -15 10 -26 0 -24 43 -69 65 -69 42 0 340 -166 565 -315 405 -267 706 -541 1006 -915 211 -264 453 -628 554 -838 24 -48 41 -72 53 -72 9 0 17 -4 17 -10 0 -5 14 -10 30 -10 17 0 30 -4 30 -10 0 -5 14 -10 30 -10 17 0 30 5 30 10 0 6 11 10 25 10 20 0 110 85 420 395 217 217 395 402 395 410 0 8 5 15 10 15 6 0 10 37 10 90 0 50 -4 90 -9 90 -4 0 -52 87 -105 193 -116 233 -132 259 -253 442 -228 345 -552 700 -888 970 -234 189 -550 383 -815 500 -72 32 -130 61 -130 66 0 5 -11 9 -24 9 -14 0 -28 5 -31 10 -3 6 -33 10 -66 10 -33 0 -59 -4 -59 -10z m213 -1446 c472 -236 876 -620 1147 -1089 114 -198 200 -392 200 -455 0 -36 -44 -90 -74 -90 -29 0 -83 57 -137 145 -269 437 -639 892 -1026 1263 -164 158 -253 272 -212 272 6 0 51 -21 102 -46z m1055 -64 c254 -98 562 -407 670 -673 65 -161 78 -303 32 -352 -22 -24 -25 -24 -48 -9 -46 30 -130 140 -196 259 -75 132 -225 337 -336 460 -20 22 -92 100 -158 172 -68 74 -122 141 -122 152 0 39 39 37 158 -9z"></path></g></g><g id="l1xoOlpmG9JsP4zqQ6B0zbx" fill="rgb(255,226,103)" style="transform: none;"><g style="transform: none;"><path id="p2yFGws3b" d="M10406 9874 c-4 -15 -5 -29 -2 -31 8 -8 36 24 36 41 0 26 -27 18 -34 -10z"></path><path id="pSdZ4qQGY" d="M7320 9430 c0 -21 16 -25 58 -14 39 11 27 34 -18 34 -33 0 -40 -3 -40 -20z"></path><path id="pV4CRUHdZ" d="M7560 9437 c0 -11 12 -18 38 -22 64 -11 156 -44 195 -70 l37 -26 0 31 c0 25 -4 30 -25 30 -14 0 -25 6 -25 13 0 16 -93 47 -166 54 -45 5 -54 3 -54 -10z"></path><path id="pPfDvJGjz" d="M7920 9220 c29 -41 65 -133 80 -202 7 -38 16 -58 26 -58 8 0 14 10 14 23 0 37 -22 137 -30 137 -4 0 -10 18 -14 40 -4 26 -11 40 -21 40 -9 0 -15 10 -15 25 0 21 -5 25 -31 25 l-30 0 21 -30z"></path><path id="p1kORuKHM" d="M10072 8978 c-6 -17 -10 -34 -7 -36 7 -7 31 22 37 46 9 35 -16 27 -30 -10z"></path><path id="pqiXijX4a" d="M8110 8921 c0 -13 10 -20 31 -25 49 -10 59 -7 59 13 0 21 -19 31 -61 31 -22 0 -29 -5 -29 -19z"></path><path id="pp2dYZOQb" d="M8300 8906 c0 -10 20 -18 58 -26 178 -35 280 -85 377 -184 82 -83 126 -166 157 -291 13 -55 25 -85 34 -85 20 0 18 42 -5 133 -20 76 -68 187 -81 187 -4 0 -10 9 -13 20 -3 11 -12 20 -21 20 -9 0 -16 8 -16 18 0 23 -40 62 -63 62 -9 0 -17 7 -17 15 0 10 -10 15 -30 15 -22 0 -30 5 -30 18 0 20 -56 52 -90 52 -11 0 -20 5 -20 10 0 6 -16 10 -35 10 -19 0 -35 4 -35 9 0 9 -106 31 -148 31 -12 0 -22 -6 -22 -14z"></path><path id="poGYtMBj4" d="M10000 8810 c0 -34 5 -37 26 -16 21 21 17 46 -6 46 -16 0 -20 -7 -20 -30z"></path><path id="pJA4Yc1sM" d="M9940 8650 c0 -34 5 -37 26 -16 21 21 17 46 -6 46 -16 0 -20 -7 -20 -30z"></path><path id="pIlCCWU7Y" d="M8911 8203 c1 -60 -2 -124 -5 -144 -8 -36 -7 -36 36 -47 24 -5 75 -16 113 -23 205 -36 349 -127 407 -257 33 -74 31 -212 -6 -322 -16 -47 -37 -100 -47 -120 -27 -50 -23 -55 14 -18 48 48 76 115 93 220 12 74 13 108 5 167 -12 78 -43 161 -60 161 -6 0 -11 6 -11 14 0 16 -60 72 -111 104 -52 32 -156 69 -230 81 -35 7 -85 16 -111 22 l-48 11 0 129 c0 123 -1 129 -20 129 -20 0 -20 -6 -19 -107z"></path><path id="pMN2qyVkI" d="M9620 7810 c0 -34 5 -37 26 -16 21 21 17 46 -6 46 -16 0 -20 -7 -20 -30z"></path><path id="pbNy1gAqO" d="M4740 7388 c-70 -29 -120 -54 -120 -60 0 -5 -7 -8 -15 -8 -9 0 -27 -11 -41 -25 -14 -14 -29 -25 -34 -25 -15 0 -110 -98 -110 -114 0 -9 -7 -16 -17 -16 -9 0 -13 -3 -10 -6 3 -4 -7 -19 -23 -34 -17 -16 -30 -33 -30 -39 0 -16 -167 -181 -183 -181 -7 0 -19 -9 -27 -20 -8 -11 -22 -20 -32 -20 -10 0 -18 -4 -18 -10 0 -5 -13 -10 -30 -10 -16 0 -30 -4 -30 -9 0 -5 -13 -11 -29 -14 -16 -3 -36 -13 -44 -22 -9 -8 -23 -15 -31 -15 -9 0 -16 -4 -16 -10 0 -5 -7 -10 -15 -10 -25 0 -65 -46 -65 -75 0 -14 5 -25 10 -25 6 0 10 -8 10 -19 0 -28 82 -99 125 -107 84 -15 180 13 322 95 81 47 123 56 179 41 37 -11 53 -23 78 -57 48 -69 101 -204 146 -370 46 -175 92 -294 158 -411 110 -196 230 -294 318 -257 41 17 49 44 34 110 -15 66 -39 119 -100 220 -72 119 -100 185 -116 273 -16 92 -18 236 -4 263 25 47 50 6 50 -82 0 -21 4 -49 10 -63 21 -57 124 -17 156 61 20 46 17 97 -6 143 -26 52 -26 80 0 80 15 0 28 -14 45 -52 14 -29 25 -61 25 -70 0 -9 4 -19 10 -23 16 -10 75 21 94 50 24 36 25 119 2 162 -24 47 -21 73 8 73 20 0 28 -9 44 -52 11 -30 27 -54 36 -56 9 -2 30 10 46 26 37 38 40 88 9 188 -44 143 -200 401 -284 470 -26 21 -58 49 -71 62 -13 12 -30 22 -38 22 -8 0 -18 5 -21 10 -3 6 -17 10 -31 10 -13 0 -24 5 -24 10 0 13 -267 12 -300 -2z"></path></g></g><g id="l6xJaLxWlmqhXXvV0S3qMAb" fill="rgb(185,228,234)" style="transform: none;"><g style="transform: none;"><path id="p51pCIQhr" d="M3465 3710 c21 -22 41 -40 44 -40 3 0 -13 18 -34 40 -21 22 -41 40 -44 40 -3 0 13 -18 34 -40z"></path><path id="pCUJK4Fku" d="M2187 3113 c-4 -3 -7 -19 -7 -34 0 -44 80 -142 270 -329 401 -394 720 -789 994 -1232 26 -42 66 -93 88 -114 37 -33 45 -36 82 -31 29 4 49 15 69 37 67 75 14 252 -173 575 -271 469 -675 853 -1147 1089 -86 43 -157 59 -176 39z"></path><path id="p7989kRp2" d="M3206 3034 c-19 -18 -21 -57 -4 -87 6 -12 63 -78 126 -147 64 -69 132 -143 152 -165 112 -124 262 -328 336 -460 81 -145 169 -252 225 -275 27 -11 33 -11 57 7 41 30 52 61 52 144 0 207 -112 443 -311 653 -144 153 -299 263 -445 315 -94 34 -164 40 -188 15z"></path></g></g><g id="l6EyLHqjfnIOKmuYV19Nfo3" fill="rgb(255,235,178)" style="transform: none;"><g style="transform: none;"><path id="p11NFyR9gJ" d="M10413 10403 c31 -34 57 -68 57 -76 0 -8 7 -20 15 -27 12 -10 15 -10 15 4 0 9 -4 16 -10 16 -5 0 -11 8 -11 18 -1 9 -29 42 -63 72 l-61 55 58 -62z"></path><path id="p1DSYitMY7" d="M10497 10220 c9 -91 23 -49 -345 -1033 -64 -170 -99 -252 -103 -240 -4 10 -12 54 -19 98 -14 96 -75 287 -120 375 -161 319 -422 516 -805 605 -124 29 -221 40 -230 25 -3 -5 -17 -10 -31 -10 -13 0 -24 -4 -24 -10 0 -5 -13 -10 -30 -10 -16 0 -30 -4 -30 -10 0 -5 -9 -10 -20 -10 -11 0 -20 -4 -20 -10 0 -5 -13 -10 -30 -10 -16 0 -30 -4 -30 -10 0 -5 -13 -10 -30 -10 -16 0 -30 -4 -30 -10 0 -5 -9 -10 -20 -10 -11 0 -20 -4 -20 -10 0 -5 -13 -10 -30 -10 -16 0 -30 -4 -30 -10 0 -5 -13 -10 -30 -10 -16 0 -30 -4 -30 -10 0 -5 -9 -10 -19 -10 -11 0 -23 -4 -26 -10 -3 -5 -17 -10 -31 -10 -13 0 -24 -4 -24 -10 0 -5 -13 -10 -30 -10 -16 0 -30 -4 -30 -10 0 -5 -9 -10 -19 -10 -11 0 -23 -4 -26 -10 -3 -5 -17 -10 -31 -10 -13 0 -24 -4 -24 -10 0 -5 -13 -10 -30 -10 -16 0 -30 -4 -30 -10 0 -5 -9 -10 -19 -10 -11 0 -23 -4 -26 -10 -3 -5 -17 -10 -31 -10 -13 0 -24 -4 -24 -10 0 -5 -13 -10 -30 -10 -16 0 -30 -4 -30 -10 0 -5 -13 -10 -30 -10 -16 0 -30 -4 -30 -10 0 -5 -9 -10 -20 -10 -11 0 -20 -4 -20 -10 0 -5 -13 -10 -30 -10 -16 0 -30 -4 -30 -10 0 -5 -13 -10 -30 -10 -16 0 -30 -4 -30 -10 0 -5 -9 -10 -19 -10 -11 0 -23 -4 -26 -10 -3 -5 -17 -10 -31 -10 -13 0 -24 -4 -24 -10 0 -5 -13 -10 -30 -10 -16 0 -30 -4 -30 -10 0 -5 -13 -10 -30 -10 -16 0 -30 -4 -30 -10 0 -5 -9 -10 -20 -10 -11 0 -20 -4 -20 -8 0 -5 -22 -15 -50 -22 -27 -7 -50 -17 -50 -21 0 -3 -13 -12 -30 -19 -16 -7 -30 -16 -30 -21 0 -5 -7 -9 -16 -9 -18 0 -49 -28 -41 -36 3 -3 29 -1 57 5 76 16 265 14 335 -4 199 -52 313 -191 356 -433 l12 -73 66 0 c119 0 285 -16 351 -34 244 -68 390 -210 451 -442 22 -83 32 -322 16 -374 l-8 -26 98 -17 c376 -66 532 -224 488 -494 -14 -80 -40 -170 -56 -186 -5 -6 -9 -18 -9 -27 0 -10 -6 -19 -12 -22 -7 -2 -10 -8 -6 -12 8 -9 48 31 67 68 8 15 18 27 23 27 4 0 8 9 8 20 0 11 5 20 10 20 6 0 10 11 10 24 0 14 5 28 10 31 6 3 10 15 10 26 0 10 5 19 10 19 6 0 10 14 10 30 0 17 5 30 10 30 6 0 10 14 10 30 0 17 5 30 10 30 6 0 10 14 10 30 0 17 5 30 10 30 6 0 10 14 10 30 0 17 5 30 10 30 6 0 10 11 10 25 0 14 5 35 12 48 24 47 28 57 28 72 0 8 5 15 10 15 6 0 10 14 10 30 0 17 5 30 10 30 6 0 10 9 10 20 0 11 5 20 10 20 6 0 10 14 10 30 0 17 5 30 10 30 6 0 10 14 10 30 0 17 5 30 10 30 6 0 10 9 10 20 0 11 5 20 10 20 6 0 10 14 10 30 0 17 4 30 8 30 5 0 15 23 22 50 7 28 17 50 22 50 4 0 8 11 8 24 0 14 5 28 10 31 6 3 10 15 10 26 0 10 5 19 10 19 6 0 10 14 10 30 0 17 5 30 10 30 6 0 10 14 10 30 0 17 5 30 10 30 6 0 10 9 10 20 0 11 5 20 10 20 6 0 10 10 10 23 0 13 9 42 20 65 11 22 20 48 20 57 0 8 5 15 10 15 6 0 10 10 10 23 0 13 9 42 20 65 11 22 20 48 20 56 0 8 4 16 9 18 5 2 11 19 12 38 2 19 12 44 21 54 10 11 18 30 18 43 0 13 5 23 10 23 6 0 10 14 10 30 0 17 4 30 8 30 5 0 15 23 22 50 7 28 17 50 22 50 4 0 8 14 8 30 0 17 5 30 10 30 6 0 10 9 10 19 0 11 5 23 10 26 6 3 10 17 10 31 0 13 5 24 10 24 6 0 10 14 10 30 0 17 4 30 8 30 5 0 15 23 22 50 7 28 17 50 22 50 4 0 8 14 8 30 0 17 5 30 10 30 6 0 10 9 10 20 0 11 5 20 10 20 6 0 10 14 10 30 0 17 5 30 10 30 6 0 10 14 10 30 0 17 5 30 10 30 6 0 10 9 10 20 0 11 5 20 10 20 6 0 10 13 10 29 0 17 5 33 10 36 6 3 10 17 10 31 0 13 5 24 10 24 6 0 10 9 10 20 0 11 5 20 10 20 6 0 10 14 10 30 0 17 5 30 10 30 6 0 10 14 10 30 0 17 5 30 10 30 16 0 13 169 -4 185 -12 12 -13 6 -9 -45z"></path><path id="p2X78IbM9" d="M905 3068 l-110 -113 113 110 c61 60 112 111 112 112 0 8 -13 -5 -115 -109z"></path><path id="p10mH2aQ7l" d="M3580 1290 c0 -5 14 -10 30 -10 17 0 30 5 30 10 0 6 -13 10 -30 10 -16 0 -30 -4 -30 -10z"></path></g></g></svg>